<svg width="80" height="64" viewBox="0 0 80 64" fill="none" xmlns="http://www.w3.org/2000/svg">
<path d="M57 0L57.823 3.36707C59.109 8.62855 59.752 11.2593 61.1233 13.3821C62.336 15.2593 63.9527 16.8418 65.8554 18.0139C68.0071 19.3395 70.651 19.926 75.9388 21.0991L80 22L75.9388 22.9009C70.651 24.074 68.0071 24.6605 65.8554 25.9861C63.9527 27.1582 62.336 28.7407 61.1233 30.6179C59.752 32.7407 59.109 35.3714 57.823 40.6329L57 44L56.177 40.6329C54.891 35.3714 54.248 32.7407 52.8767 30.6179C51.664 28.7407 50.0473 27.1582 48.1446 25.9861C45.9929 24.6605 43.349 24.074 38.0612 22.9009L34 22L38.0612 21.0991C43.349 19.926 45.9929 19.3395 48.1446 18.0139C50.0473 16.8418 51.664 15.2593 52.8767 13.3821C54.248 11.2593 54.891 8.62855 56.177 3.36707L57 0Z" fill="#FF26B9"/>
<path d="M22.6627 23.4858L23 22.1059L23.3373 23.4858L23.3661 23.6038C24.6247 28.7531 25.2862 31.4596 26.7034 33.6534C27.9564 35.5932 29.627 37.2284 31.5932 38.4396C33.8168 39.8095 36.5369 40.4129 41.7119 41.5609L41.8306 41.5872L43.6914 42L41.8306 42.4128L41.7119 42.4391C36.5369 43.5871 33.8168 44.1905 31.5932 45.5604C29.627 46.7716 27.9564 48.4068 26.7034 50.3466C25.2862 52.5404 24.6247 55.2469 23.3661 60.3962L23.3373 60.5142L23 61.8941L22.6627 60.5142L22.6339 60.3961C21.3753 55.2469 20.7138 52.5404 19.2966 50.3466C18.0436 48.4068 16.373 46.7716 14.4068 45.5604C12.1832 44.1905 9.4631 43.5871 4.28811 42.4391L4.16945 42.4128L2.30865 42L4.16945 41.5872L4.2881 41.5609C9.46309 40.4129 12.1832 39.8095 14.4068 38.4396C16.373 37.2284 18.0436 35.5932 19.2966 33.6534C20.7138 31.4596 21.3753 28.7531 22.6339 23.6039L22.6627 23.4858Z" stroke="#FFDFB9"/>
</svg>
