<svg width="921" height="687" viewBox="0 0 921 687" fill="none" xmlns="http://www.w3.org/2000/svg">
<path d="M146.435 106.087C197.843 -3.35781 380.386 12.072 450.814 89.0001C521.243 165.928 544.167 215.311 607.709 186.587C671.251 157.863 752.285 165.523 756.851 256.868C761.418 348.214 687.122 456.222 568.968 488.168C450.814 520.114 450.814 633.186 294.436 610.373C209.167 597.926 207.215 505.679 219.257 429.377C231.299 353.075 86.8144 233.042 146.435 106.087Z" fill="#C52D95"/>
<path opacity="0.9" d="M146.435 106.087C197.843 -3.35781 380.386 12.072 450.814 89.0001C521.243 165.928 544.167 215.311 607.709 186.587C671.251 157.863 752.285 165.523 756.851 256.868C761.418 348.214 687.122 456.222 568.968 488.168C450.814 520.114 450.814 633.186 294.436 610.373C209.167 597.926 207.215 505.679 219.257 429.377C231.299 353.075 86.8144 233.042 146.435 106.087Z" fill="white"/>
<path d="M460.334 686.604C657.502 686.604 817.337 677.272 817.337 665.761C817.337 654.25 657.502 644.918 460.334 644.918C263.167 644.918 103.331 654.25 103.331 665.761C103.331 677.272 263.167 686.604 460.334 686.604Z" fill="#F5F5F5"/>
<path d="M787.086 606.197C787.086 606.197 795.74 577.215 778.248 571.452C760.755 565.689 750.371 552.137 750.96 536.818C751.549 521.498 733.136 506.584 719.327 520.946C705.517 535.308 707.359 509.898 688.946 503.73C670.533 497.562 654.919 512.531 659.965 526.212C665.01 539.893 646.836 548.454 625.091 536.818C603.346 525.181 579.391 546.355 583.994 562.927C588.597 579.498 584.822 581.339 571.105 575.816C557.388 570.292 532.715 585.943 541.332 606.197C549.949 626.45 787.086 606.197 787.086 606.197Z" fill="#C52D95"/>
<path opacity="0.1" d="M787.086 606.197C787.086 606.197 795.74 577.215 778.248 571.452C760.755 565.689 750.371 552.137 750.96 536.818C751.549 521.498 733.136 506.584 719.327 520.946C705.517 535.308 707.359 509.898 688.946 503.73C670.533 497.562 654.919 512.531 659.965 526.212C665.01 539.893 646.836 548.454 625.091 536.818C603.346 525.181 579.391 546.355 583.994 562.927C588.597 579.498 584.822 581.339 571.105 575.816C557.388 570.292 532.715 585.943 541.332 606.197C549.949 626.45 787.086 606.197 787.086 606.197Z" fill="white"/>
<path d="M324.375 608.958C333.581 599.751 325.296 584.101 316.089 582.259C306.883 580.418 297.677 564.215 297.198 553.904C296.719 543.593 280.185 511.868 254.407 531.459C228.629 551.05 236.454 534.331 217.821 528.844C199.187 523.357 187.403 539.174 195.597 551.05C195.597 551.05 176.853 546.355 169.138 563.847C161.423 581.339 169.138 592.202 169.138 592.202C169.138 592.202 133.914 591.153 137.081 612.935C140.248 634.717 324.375 608.958 324.375 608.958Z" fill="#C52D95"/>
<path opacity="0.1" d="M324.375 608.958C333.581 599.751 325.296 584.101 316.089 582.259C306.883 580.418 297.677 564.215 297.198 553.904C296.719 543.593 280.185 511.868 254.407 531.459C228.629 551.05 236.454 534.331 217.821 528.844C199.187 523.357 187.403 539.174 195.597 551.05C195.597 551.05 176.853 546.355 169.138 563.847C161.423 581.339 169.138 592.202 169.138 592.202C169.138 592.202 133.914 591.153 137.081 612.935C140.248 634.717 324.375 608.958 324.375 608.958Z" fill="white"/>
<path d="M218.503 613.321C209.297 604.115 217.582 588.464 226.789 586.623C235.995 584.782 245.201 568.578 245.698 558.267C246.196 547.956 262.693 516.25 288.471 535.822C314.249 555.395 306.423 538.713 325.075 533.208C343.727 527.702 355.475 543.537 347.3 555.413C347.3 555.413 366.025 550.718 373.74 568.21C381.455 585.702 373.74 596.566 373.74 596.566C373.74 596.566 408.982 595.535 405.815 617.317C402.648 639.099 218.503 613.321 218.503 613.321Z" fill="#C52D95"/>
<path opacity="0.1" d="M218.503 613.321C209.297 604.115 217.582 588.464 226.789 586.623C235.995 584.782 245.201 568.578 245.698 558.267C246.196 547.956 262.693 516.25 288.471 535.822C314.249 555.395 306.423 538.713 325.075 533.208C343.727 527.702 355.475 543.537 347.3 555.413C347.3 555.413 366.025 550.718 373.74 568.21C381.455 585.702 373.74 596.566 373.74 596.566C373.74 596.566 408.982 595.535 405.815 617.317C402.648 639.099 218.503 613.321 218.503 613.321Z" fill="white"/>
<path d="M818.755 609.511V634.737H108.027V609.511C107.972 608.503 108.121 607.495 108.465 606.546C108.809 605.597 109.34 604.727 110.028 603.988C110.715 603.249 111.544 602.656 112.466 602.245C113.387 601.833 114.383 601.612 115.392 601.594H811.317C812.332 601.602 813.335 601.816 814.265 602.223C815.196 602.63 816.034 603.222 816.729 603.962C817.424 604.702 817.962 605.575 818.311 606.529C818.659 607.483 818.81 608.497 818.755 609.511Z" fill="#263238"/>
<path d="M192.725 601.594H148.534V634.737H192.725V601.594Z" fill="#C52D95"/>
<path d="M275.582 601.594H233.232V634.737H275.582V601.594Z" fill="#C52D95"/>
<path d="M360.28 601.594H316.09V634.737H360.28V601.594Z" fill="#C52D95"/>
<path d="M443.137 601.594H400.788V634.737H443.137V601.594Z" fill="#C52D95"/>
<path d="M525.994 601.594H483.645V634.737H525.994V601.594Z" fill="#C52D95"/>
<path d="M610.692 601.594H566.502V634.737H610.692V601.594Z" fill="#C52D95"/>
<path d="M693.549 601.594H651.2V634.737H693.549V601.594Z" fill="#C52D95"/>
<path d="M778.248 601.594H734.058V634.737H778.248V601.594Z" fill="#C52D95"/>
<g opacity="0.6">
<path d="M192.725 601.594H148.534V634.737H192.725V601.594Z" fill="white"/>
<path d="M275.582 601.594H233.232V634.737H275.582V601.594Z" fill="white"/>
<path d="M360.28 601.594H316.09V634.737H360.28V601.594Z" fill="white"/>
<path d="M443.137 601.594H400.788V634.737H443.137V601.594Z" fill="white"/>
<path d="M525.994 601.594H483.645V634.737H525.994V601.594Z" fill="white"/>
<path d="M610.692 601.594H566.502V634.737H610.692V601.594Z" fill="white"/>
<path d="M693.549 601.594H651.2V634.737H693.549V601.594Z" fill="white"/>
<path d="M778.247 601.594H734.057V634.737H778.247V601.594Z" fill="white"/>
</g>
<path opacity="0.1" d="M818.755 609.511V634.737H108.027V609.511C107.972 608.503 108.121 607.495 108.465 606.546C108.809 605.597 109.34 604.727 110.028 603.988C110.715 603.249 111.544 602.656 112.466 602.245C113.387 601.833 114.383 601.612 115.392 601.594H811.317C812.332 601.602 813.335 601.816 814.265 602.223C815.196 602.63 816.034 603.222 816.729 603.962C817.424 604.702 817.962 605.575 818.311 606.529C818.659 607.483 818.81 608.497 818.755 609.511Z" fill="white"/>
<path d="M215.225 286.016C215.225 286.016 198.469 292.092 201.397 300.58C204.325 309.068 224.339 297.597 224.339 297.597L215.225 286.016Z" fill="#9F5B53"/>
<path opacity="0.2" d="M215.225 286.016C215.225 286.016 198.469 292.092 201.397 300.58C204.325 309.068 224.339 297.597 224.339 297.597L215.225 286.016Z" fill="black"/>
<path d="M244.188 267.309C234.89 269.279 211.229 285.39 211.229 285.39L219.239 304.594L240.671 297.524L244.188 267.309Z" fill="#C52D95"/>
<path d="M280.48 639.099L268.88 645.765L254.96 620.539L266.56 613.855L280.48 639.099Z" fill="#9F5B53"/>
<path d="M267.462 644.271L280.351 636.077C280.556 635.929 280.808 635.858 281.061 635.878C281.314 635.899 281.552 636.008 281.732 636.188L289.52 644.271C289.853 644.665 290.017 645.174 289.976 645.688C289.934 646.202 289.691 646.679 289.299 647.015L288.968 647.236C284.475 649.979 282.026 651.231 276.429 654.803C272.986 656.976 258.366 664.838 252.971 665.225C247.576 665.611 246.968 660.493 249.16 659.701C260.207 655.576 264.571 650.292 265.989 646.131C266.261 645.365 266.779 644.712 267.462 644.271Z" fill="#263238"/>
<path opacity="0.2" d="M266.56 613.855L254.96 620.539L262.141 633.539L273.741 626.873L266.56 613.855Z" fill="black"/>
<path d="M234.172 343.098C234.172 343.098 196.205 468.985 198.286 506.4C200.569 547.423 255.715 633.723 255.715 633.723L276.503 620.595C276.503 620.595 237.541 535.473 236.087 503.988C238.241 458.435 285.598 347.793 285.598 347.793L234.172 343.098Z" fill="#263238"/>
<path opacity="0.2" d="M264.313 387.286C252.824 394.32 248.276 424.277 250.706 439.486C256.911 420.226 264 401.243 269.671 386.679C268.803 386.301 267.851 386.158 266.911 386.265C265.971 386.371 265.075 386.724 264.313 387.286Z" fill="black"/>
<path d="M253.413 635.636L277.92 620.096L273.906 613.191L248.202 628.861L253.413 635.636Z" fill="#263238"/>
<path d="M264.81 648.524C264.077 649.059 263.196 649.355 262.288 649.371C262 649.335 261.726 649.224 261.493 649.05C261.261 648.875 261.078 648.643 260.962 648.377C260.88 648.224 260.837 648.053 260.837 647.88C260.837 647.706 260.88 647.536 260.962 647.383C261.883 645.965 266.781 645.744 267.333 645.744C267.388 645.737 267.445 645.75 267.492 645.78C267.539 645.81 267.574 645.856 267.591 645.91C267.627 645.958 267.646 646.016 267.646 646.075C267.646 646.135 267.627 646.193 267.591 646.241C266.744 647.094 265.812 647.859 264.81 648.524ZM261.828 647.383C261.699 647.451 261.59 647.553 261.515 647.677C261.471 647.733 261.448 647.801 261.448 647.871C261.448 647.941 261.471 648.009 261.515 648.064C261.579 648.257 261.699 648.426 261.86 648.55C262.02 648.675 262.214 648.749 262.417 648.764C264.028 648.483 265.489 647.642 266.541 646.388C264.923 646.431 263.325 646.768 261.828 647.383Z" fill="#C52D95"/>
<path d="M267.498 646.317H267.351C265.823 646.464 262.177 645.543 261.717 644.199C261.652 643.975 261.664 643.736 261.751 643.519C261.838 643.302 261.994 643.12 262.196 643.003C262.377 642.847 262.588 642.731 262.816 642.661C263.044 642.592 263.284 642.57 263.521 642.597C265.363 642.763 267.517 645.691 267.591 645.875C267.625 645.92 267.643 645.975 267.643 646.031C267.643 646.088 267.625 646.143 267.591 646.188L267.498 646.317ZM262.674 643.426H262.564C262.232 643.702 262.288 643.868 262.306 643.942C262.582 644.733 265.068 645.58 266.707 645.691C266.062 644.862 264.644 643.279 263.429 643.168C263.164 643.145 262.899 643.21 262.674 643.352V643.426Z" fill="#C52D95"/>
<path d="M305.761 654.27H292.872L291.804 624.387H304.711L305.761 654.27Z" fill="#9F5B53"/>
<path d="M291.086 652.78H306.755C307.009 652.783 307.255 652.871 307.453 653.032C307.65 653.192 307.787 653.415 307.841 653.664L310.4 665.153C310.46 665.398 310.468 665.652 310.425 665.9C310.382 666.148 310.289 666.385 310.15 666.596C310.012 666.806 309.833 666.986 309.622 667.124C309.412 667.263 309.175 667.356 308.927 667.4C308.787 667.418 308.645 667.418 308.504 667.4C303.44 667.308 299.74 666.995 293.369 666.995C289.447 666.995 277.626 667.418 272.213 667.418C266.799 667.418 266.081 662.06 268.309 661.563C278.252 659.409 285.727 656.407 288.913 653.535C289.515 653.017 290.292 652.747 291.086 652.78Z" fill="#263238"/>
<path opacity="0.2" d="M304.711 624.406H291.804L292.356 639.818H305.263L304.711 624.406Z" fill="black"/>
<path d="M251.774 345.562C251.774 345.562 262.288 468.927 267.72 506.305C273.685 547.329 286.427 636.832 286.427 636.832H310.032C310.032 636.832 305.208 551.158 302.98 510.853C300.421 464.821 299.187 349.448 299.187 349.448L251.774 345.562Z" fill="#263238"/>
<path d="M283.591 637.333H311.431V629.011L282.542 628.477L283.591 637.333Z" fill="#263238"/>
<path d="M286.814 655.046C285.934 655.117 285.056 654.883 284.328 654.383C284.096 654.184 283.917 653.929 283.808 653.643C283.698 653.357 283.662 653.048 283.702 652.744C283.691 652.567 283.735 652.391 283.827 652.24C283.919 652.088 284.056 651.969 284.218 651.897C285.654 651.161 289.742 653.739 290.276 654.015C290.329 654.042 290.372 654.085 290.398 654.138C290.425 654.191 290.433 654.251 290.423 654.309C290.415 654.369 290.39 654.425 290.351 654.471C290.311 654.517 290.26 654.55 290.202 654.567C289.093 654.845 287.957 655.006 286.814 655.046ZM284.973 652.376C284.84 652.339 284.7 652.339 284.568 652.376C284.568 652.376 284.384 652.487 284.384 652.744C284.355 652.945 284.378 653.149 284.448 653.339C284.519 653.529 284.636 653.698 284.789 653.831C286.229 654.498 287.871 654.583 289.374 654.07C288.003 653.239 286.483 652.682 284.899 652.431L284.973 652.376Z" fill="#C52D95"/>
<path d="M290.11 654.584H289.962C288.637 653.866 286.059 651.031 286.28 649.668C286.327 649.439 286.451 649.233 286.632 649.086C286.814 648.938 287.04 648.857 287.274 648.858C287.504 648.827 287.738 648.846 287.96 648.913C288.182 648.98 288.388 649.093 288.563 649.245C290.055 650.46 290.404 654.179 290.404 654.345C290.406 654.402 290.393 654.459 290.368 654.511C290.342 654.562 290.304 654.606 290.257 654.64L290.11 654.584ZM287.514 649.355H287.366C286.98 649.355 286.943 649.576 286.924 649.668C286.759 650.497 288.397 652.651 289.742 653.645C289.646 652.179 289.114 650.774 288.213 649.613C288.018 649.447 287.77 649.356 287.514 649.355Z" fill="#C52D95"/>
<path d="M241.924 365.21L274.975 365.616V357.551H241.924V365.21Z" fill="black"/>
<path d="M277.479 357.551V365.634L300.071 365.91V357.551H277.479Z" fill="black"/>
<path d="M239.42 357.551H229.808L228.906 365.045L239.42 365.174V357.551Z" fill="black"/>
<path d="M261.827 356.078H248.828V365.45H261.827V356.078Z" fill="white"/>
<path d="M230.379 356.411L300.678 361.07C304.527 326.988 315.74 291.93 319.091 279.538C319.33 278.681 319.219 277.765 318.785 276.989C318.35 276.213 317.626 275.64 316.771 275.395C313.291 274.383 309.682 273.554 306.055 272.67C289.615 269.221 272.943 266.987 256.175 265.987C252.138 265.615 248.068 266.06 244.207 267.294C233.638 297.196 231.152 333.745 230.379 356.411Z" fill="#C52D95"/>
<path opacity="0.6" d="M312.518 302.83C311.855 305.371 311.137 308.041 310.437 310.802C306.046 327.317 302.786 344.111 300.678 361.069L230.379 356.411C230.896 335.209 233.157 314.086 237.136 293.255C244.17 277.126 261.809 270.129 261.809 270.129C261.809 270.129 263.761 274.29 272.507 275.505C281.253 276.721 292.927 273.996 292.927 273.996C306.534 284.749 310.014 304.505 310.014 304.505L312.518 302.83Z" fill="white"/>
<path opacity="0.2" d="M316.274 289.424C314.599 295.279 312.592 302.571 310.438 310.801C302.741 299.974 309.609 284.25 309.609 284.25C312.275 285.31 314.587 287.104 316.274 289.424Z" fill="black"/>
<path d="M293.406 270.513C287.367 276.037 272.581 273.956 272.581 273.956C272.581 273.956 263.375 271.434 265.216 268.543C270.74 267.659 273.299 265.118 274.422 261.859C275.012 259.847 275.2 257.738 274.975 255.654C274.975 255.138 274.883 254.623 274.809 254.126C274.735 253.629 274.625 252.837 274.515 252.192L292.798 238.641C292.135 241.108 291.436 244.164 290.957 247.423C289.668 255.102 289.263 263.995 292.356 269.003C292.654 269.541 293.006 270.046 293.406 270.513Z" fill="#9F5B53"/>
<path opacity="0.2" d="M290.349 263.243C283.683 262.506 278.712 258.198 274.532 252.195L289.98 253.484C289.835 256.742 289.958 260.006 290.349 263.243Z" fill="black"/>
<path d="M201.287 297.359C199.759 306.805 205.393 309.567 227.635 335.805C227.635 335.805 226.218 340.077 226.899 341.108C227.58 342.139 240.524 355.23 240.524 355.23L251.572 340.795C251.572 340.795 243.47 330.871 240.874 329.066C239.788 328.311 234.651 328.514 234.651 328.514C234.651 328.514 215.851 296.605 212.114 293.659C208.376 290.712 202.3 291.099 201.287 297.359Z" fill="#9F5B53"/>
<path d="M327.764 312.44C327.764 312.44 339.75 328.477 350.89 325.77C362.03 323.064 373.501 312.882 373.501 312.882C373.501 312.882 378.73 316.159 381.179 316.104C383.628 316.049 396.535 313.839 396.535 313.839L390.496 300.085C390.496 300.085 379.282 300.821 376.318 300.748C373.353 300.674 369.726 305.351 369.726 305.351C369.726 305.351 351.995 309.844 349.472 309.733C346.95 309.623 338.222 299.938 338.222 299.938L327.764 312.44Z" fill="#9F5B53"/>
<path d="M316.716 275.375C327.009 280.218 347.502 304.412 347.502 304.412L332.22 322.033L310.032 304.43C310.032 304.43 307.841 290.4 309.609 284.176C310.751 280.434 313.299 277.28 316.716 275.375Z" fill="#C52D95"/>
<path opacity="0.2" d="M253.413 635.636L277.92 620.096L273.906 613.191L248.202 628.861L253.413 635.636Z" fill="black"/>
<path opacity="0.2" d="M283.591 637.333H311.431V629.011L282.542 628.477L283.591 637.333Z" fill="black"/>
<path d="M260.152 230.394C260.02 230.942 260.052 231.517 260.246 232.046C260.44 232.576 260.786 233.036 261.241 233.368C261.696 233.701 262.24 233.892 262.803 233.916C263.366 233.941 263.924 233.798 264.406 233.505C264.888 233.213 265.273 232.784 265.512 232.274C265.75 231.763 265.832 231.193 265.748 230.636C265.663 230.079 265.415 229.559 265.035 229.142C264.656 228.726 264.161 228.431 263.614 228.295C263.249 228.204 262.869 228.187 262.497 228.243C262.125 228.3 261.768 228.429 261.446 228.625C261.125 228.82 260.845 229.076 260.623 229.38C260.401 229.684 260.241 230.028 260.152 230.394Z" fill="#263238"/>
<path d="M304.085 210.527C304.085 210.527 308.577 227.762 299.979 235.477C291.38 243.191 287.974 210.527 287.974 210.527H304.085Z" fill="#263238"/>
<path d="M303.257 245.361C303.073 245.988 302.852 246.602 302.594 247.202C300.799 251.324 297.509 254.614 293.387 256.408C289.667 258.077 285.457 258.294 281.585 257.016C278.822 256.074 276.371 254.392 274.496 252.155C268.512 245.306 269.156 237.849 269.23 225.199C269.197 222.24 269.923 219.321 271.338 216.721C272.753 214.122 274.811 211.928 277.314 210.35C279.818 208.771 282.684 207.86 285.639 207.704C288.595 207.547 291.541 208.151 294.198 209.456C306.203 215.293 306.718 234.184 303.257 245.361Z" fill="#9F5B53"/>
<path d="M288.139 229.988C287.992 231.001 288.544 231.83 289.244 231.922C289.944 232.014 290.496 231.167 290.57 230.081C290.643 228.994 290.146 228.239 289.483 228.147C288.82 228.055 288.213 228.939 288.139 229.988Z" fill="#263238"/>
<path d="M299.758 230.781C299.629 231.794 300.199 232.622 300.862 232.715C301.525 232.807 302.133 231.96 302.206 230.873C302.28 229.787 301.783 229.032 301.102 228.94C300.42 228.848 299.831 229.769 299.758 230.781Z" fill="#263238"/>
<path d="M296.039 231C297.05 234.257 298.513 237.356 300.384 240.206C299.642 240.662 298.811 240.951 297.946 241.056C297.082 241.161 296.205 241.079 295.376 240.814L296.039 231Z" fill="#892B29"/>
<path d="M304.398 226.049C304.304 226.107 304.196 226.139 304.085 226.139C303.975 226.139 303.866 226.107 303.772 226.049C303.167 225.586 302.462 225.273 301.713 225.136C300.964 224.998 300.193 225.039 299.464 225.257C299.315 225.311 299.15 225.305 299.006 225.239C298.861 225.174 298.748 225.055 298.69 224.907C298.661 224.833 298.647 224.755 298.649 224.675C298.65 224.596 298.668 224.518 298.701 224.446C298.733 224.374 298.78 224.309 298.839 224.255C298.897 224.202 298.965 224.16 299.04 224.134C299.953 223.841 300.923 223.772 301.868 223.932C302.814 224.092 303.706 224.477 304.472 225.054C304.538 225.097 304.595 225.153 304.639 225.218C304.684 225.283 304.714 225.356 304.73 225.434C304.745 225.511 304.745 225.59 304.729 225.668C304.713 225.745 304.682 225.818 304.638 225.883C304.575 225.959 304.492 226.017 304.398 226.049Z" fill="#263238"/>
<path d="M286.132 225.256C286.011 225.249 285.894 225.204 285.801 225.127C285.704 225 285.661 224.839 285.682 224.681C285.703 224.522 285.785 224.378 285.911 224.28C286.668 223.687 287.557 223.285 288.503 223.109C289.449 222.933 290.423 222.987 291.343 223.267C291.417 223.294 291.486 223.335 291.544 223.389C291.603 223.442 291.649 223.507 291.682 223.58C291.715 223.652 291.733 223.73 291.734 223.809C291.736 223.888 291.722 223.967 291.693 224.041C291.635 224.188 291.522 224.308 291.377 224.373C291.233 224.438 291.068 224.445 290.919 224.39C290.185 224.193 289.414 224.17 288.669 224.324C287.925 224.477 287.226 224.803 286.629 225.274C286.549 225.305 286.464 225.32 286.379 225.317C286.293 225.313 286.209 225.293 286.132 225.256Z" fill="#263238"/>
<path d="M279.485 210.047L280.074 215.571C279.121 216 278.366 216.774 277.96 217.737C277.553 218.7 277.526 219.781 277.883 220.763C279.614 225.495 276.815 232.731 273.17 235.493C273.17 235.493 273.17 233.468 271.328 233.91C269.487 234.352 269.892 244.957 273.17 250.076C273.17 250.076 268.198 245.418 265.528 234.26C263.061 223.93 262.877 215.35 265.05 211.409L279.485 210.047Z" fill="#263238"/>
<path d="M262.988 235.217C264.207 238.164 266.544 240.507 269.487 241.735C273.409 243.337 275.84 239.894 275.177 236.009C274.551 232.511 271.789 227.337 267.665 227.447C266.763 227.475 265.882 227.728 265.104 228.184C264.325 228.64 263.674 229.284 263.208 230.057C262.743 230.83 262.479 231.708 262.44 232.609C262.402 233.511 262.59 234.407 262.988 235.217Z" fill="#9F5B53"/>
<path d="M295.302 244.149C294.334 245.7 293.478 247.318 292.742 248.991L291.803 248.734C287.587 247.592 286.003 245.659 285.543 243.873C285.331 242.996 285.331 242.08 285.543 241.203C285.658 240.709 285.837 240.232 286.077 239.785C288.371 241.624 291.034 242.949 293.884 243.67C294.749 244.02 295.302 244.149 295.302 244.149Z" fill="#263238"/>
<path d="M293.884 243.67L293.074 245.069C289.115 243.983 286.464 242.675 285.543 241.129C285.658 240.635 285.837 240.158 286.077 239.711C288.364 241.576 291.027 242.927 293.884 243.67Z" fill="white"/>
<path d="M291.803 248.732C287.587 247.59 286.003 245.657 285.543 243.871C287.134 244.344 288.629 245.092 289.962 246.081C290.838 246.75 291.482 247.677 291.803 248.732Z" fill="#DE5753"/>
<path d="M260.686 214.814C260.494 215.603 260.54 216.432 260.819 217.195C261.098 217.958 261.597 218.621 262.253 219.101C262.909 219.58 263.692 219.854 264.504 219.888C265.315 219.922 266.119 219.714 266.813 219.292C267.506 218.869 268.059 218.249 268.401 217.512C268.742 216.775 268.858 215.953 268.732 215.151C268.606 214.348 268.245 213.601 267.695 213.003C267.144 212.406 266.429 211.985 265.639 211.794C264.582 211.539 263.467 211.714 262.538 212.28C261.609 212.846 260.943 213.757 260.686 214.814Z" fill="#263238"/>
<path d="M261.146 221.058C261.014 221.606 261.047 222.181 261.24 222.71C261.434 223.24 261.781 223.7 262.236 224.033C262.691 224.365 263.234 224.556 263.797 224.58C264.36 224.605 264.918 224.462 265.4 224.169C265.882 223.877 266.267 223.449 266.506 222.938C266.744 222.427 266.827 221.857 266.742 221.3C266.657 220.743 266.409 220.223 266.029 219.806C265.65 219.39 265.155 219.095 264.608 218.959C263.871 218.781 263.093 218.902 262.445 219.295C261.796 219.688 261.329 220.322 261.146 221.058Z" fill="#263238"/>
<path d="M260.76 224.961C260.627 225.508 260.66 226.083 260.854 226.613C261.048 227.142 261.394 227.602 261.849 227.935C262.304 228.268 262.847 228.458 263.41 228.483C263.974 228.507 264.531 228.364 265.013 228.072C265.495 227.779 265.88 227.351 266.119 226.84C266.358 226.33 266.44 225.76 266.355 225.202C266.27 224.645 266.023 224.125 265.643 223.709C265.263 223.292 264.768 222.997 264.221 222.861C263.484 222.683 262.706 222.804 262.058 223.198C261.409 223.591 260.943 224.225 260.76 224.961Z" fill="#263238"/>
<path d="M262.858 213.804C262.858 213.804 261.68 206.439 273.354 201.044C285.027 195.649 297.474 202.517 305.3 197.804C313.125 193.09 312.867 213.326 296.351 215.167C285.175 216.164 273.917 215.706 262.858 213.804Z" fill="#263238"/>
<path d="M286.022 198.097C285.729 199.281 285.794 200.526 286.21 201.673C286.627 202.82 287.374 203.817 288.359 204.537C289.343 205.258 290.519 205.67 291.738 205.72C292.957 205.77 294.163 205.457 295.204 204.82C296.244 204.182 297.071 203.25 297.58 202.142C298.09 201.033 298.257 199.798 298.063 198.594C297.868 197.389 297.319 196.27 296.487 195.378C295.654 194.487 294.575 193.863 293.387 193.586C291.813 193.214 290.155 193.48 288.776 194.325C287.396 195.17 286.406 196.526 286.022 198.097Z" fill="#263238"/>
<path d="M268.843 200.214C268.555 201.394 268.623 202.633 269.04 203.774C269.457 204.915 270.203 205.907 271.185 206.623C272.166 207.339 273.338 207.748 274.551 207.797C275.765 207.846 276.966 207.534 278.002 206.899C279.038 206.265 279.862 205.337 280.37 204.233C280.877 203.13 281.046 201.9 280.854 200.701C280.661 199.501 280.117 198.386 279.29 197.496C278.463 196.606 277.391 195.982 276.208 195.703C274.634 195.331 272.976 195.597 271.597 196.442C270.217 197.287 269.228 198.643 268.843 200.214Z" fill="#263238"/>
<path d="M303.348 205.131C303.157 205.919 303.204 206.747 303.482 207.509C303.761 208.271 304.26 208.934 304.915 209.413C305.57 209.892 306.352 210.166 307.163 210.2C307.974 210.235 308.776 210.029 309.47 209.608C310.164 209.186 310.717 208.569 311.06 207.833C311.403 207.098 311.52 206.277 311.397 205.475C311.274 204.673 310.916 203.926 310.368 203.327C309.82 202.728 309.107 202.305 308.319 202.111C307.795 201.982 307.25 201.958 306.716 202.04C306.181 202.122 305.669 202.308 305.207 202.589C304.745 202.869 304.343 203.238 304.024 203.675C303.705 204.111 303.475 204.606 303.348 205.131Z" fill="#263238"/>
<path d="M279.891 196.642C279.7 197.431 279.747 198.259 280.025 199.021C280.304 199.783 280.803 200.445 281.458 200.924C282.113 201.403 282.895 201.677 283.706 201.712C284.517 201.747 285.319 201.541 286.013 201.119C286.707 200.698 287.26 200.081 287.603 199.345C287.946 198.61 288.063 197.789 287.94 196.987C287.817 196.185 287.459 195.437 286.911 194.838C286.363 194.24 285.65 193.817 284.862 193.623C284.338 193.494 283.793 193.469 283.258 193.551C282.724 193.633 282.212 193.82 281.75 194.101C281.288 194.381 280.886 194.75 280.567 195.186C280.248 195.622 280.018 196.117 279.891 196.642Z" fill="#263238"/>
<path d="M263.319 205.002C263.128 205.791 263.174 206.618 263.453 207.38C263.732 208.142 264.23 208.805 264.885 209.284C265.541 209.763 266.323 210.037 267.134 210.072C267.944 210.106 268.747 209.9 269.441 209.479C270.134 209.057 270.688 208.44 271.03 207.705C271.373 206.969 271.491 206.148 271.368 205.346C271.245 204.544 270.886 203.797 270.339 203.198C269.791 202.599 269.078 202.176 268.29 201.982C267.765 201.853 267.22 201.829 266.686 201.911C266.152 201.993 265.639 202.179 265.178 202.46C264.716 202.74 264.314 203.109 263.995 203.546C263.676 203.982 263.446 204.477 263.319 205.002Z" fill="#263238"/>
<path d="M297.64 198.834C297.348 200.026 297.416 201.277 297.835 202.43C298.254 203.583 299.006 204.586 299.995 205.312C300.983 206.038 302.165 206.455 303.391 206.51C304.617 206.564 305.831 206.254 306.88 205.619C307.93 204.983 308.768 204.051 309.287 202.94C309.807 201.829 309.986 200.588 309.801 199.375C309.616 198.162 309.076 197.032 308.249 196.126C307.421 195.22 306.344 194.58 305.153 194.286C303.553 193.897 301.865 194.157 300.457 195.009C299.05 195.861 298.037 197.237 297.64 198.834Z" fill="#263238"/>
<path d="M386.683 308.315L411.834 333.228C415.517 333.08 416.953 324.537 417.542 317.65L413.97 310.801L417.542 303.859H428.48L430.984 311.482L429.621 317.65L424.208 320.265C424.208 320.265 420.415 351.309 415.628 351.309C410.84 351.309 379.741 324.169 379.741 324.169L386.683 308.315Z" fill="#EEC1BB"/>
<path d="M379.889 326.486L393.698 337.773L404.856 320.152L386.609 308.312L379.889 326.486Z" fill="#263238"/>
<path opacity="0.2" d="M387.604 332.803L389.739 322.031L393.698 337.774L387.604 332.803Z" fill="black"/>
<path d="M389.169 361.73V379.278L341.48 382.592L339.381 364.087L389.169 361.73Z" fill="#EEC1BB"/>
<path d="M437.17 654.526L426.638 656.386L422.311 642.024L418.371 628.84L430.523 624.605L434.04 640.44L437.17 654.526Z" fill="#EEC1BB"/>
<path opacity="0.2" d="M434.096 640.772L422.367 642.319L418.39 628.988L430.524 624.68L434.096 640.772Z" fill="black"/>
<path d="M441.166 654.636C441.113 654.609 441.07 654.566 441.044 654.513C441.017 654.46 441.009 654.4 441.019 654.341C441.019 654.176 441.332 650.456 442.86 649.241C443.039 649.088 443.247 648.975 443.473 648.909C443.698 648.842 443.935 648.824 444.167 648.854C444.399 648.855 444.623 648.936 444.801 649.084C444.979 649.231 445.1 649.437 445.143 649.664C445.42 651.027 442.842 653.863 441.461 654.581H441.313L441.166 654.636ZM443.228 649.609C442.328 650.771 441.796 652.175 441.7 653.642C443.026 652.647 444.665 650.493 444.499 649.664C444.499 649.572 444.499 649.351 444.057 649.351H443.91C443.659 649.353 443.417 649.445 443.228 649.609Z" fill="#263238"/>
<path d="M366.834 659.386H356.136L354.387 644.325L352.804 630.571L365.49 628.453L366.208 644.822L366.834 659.386Z" fill="#EEC1BB"/>
<path opacity="0.2" d="M366.208 644.953L354.387 644.438L352.804 630.628L365.49 628.492L366.208 644.953Z" fill="black"/>
<path d="M435.09 632.412L417.782 635.468C400.309 591.922 387.862 555.594 379.116 525.434C374.384 509.157 370.443 494.685 367.608 481.851L368.142 529.245V636.039H351.073C308.301 432.303 338.608 385.884 338.608 385.884L389.795 377.359C391.804 386.831 393.224 396.418 394.049 406.065L396.369 423.041L416.365 526.373L435.09 632.412Z" fill="#C52D95"/>
<g opacity="0.3">
<path d="M435.09 632.412L417.782 635.468C400.309 591.922 387.862 555.594 379.116 525.434C374.384 509.157 370.443 494.685 367.608 481.851L368.142 529.245V636.039H351.073C308.301 432.303 338.608 385.884 338.608 385.884L389.795 377.359C391.804 386.831 393.224 396.418 394.049 406.065L396.369 423.041L416.365 526.373L435.09 632.412Z" fill="white"/>
</g>
<path opacity="0.2" d="M379.097 525.381C374.365 509.104 370.682 494.632 367.847 481.798C368.093 466.6 369.2 451.428 371.161 436.355C371.161 436.355 378.655 495.018 379.097 525.381Z" fill="black"/>
<path d="M393.477 386.069L334.446 390.967C336.288 379.385 337.135 359.757 333.378 346.463C332.808 344.475 332.182 342.376 331.537 340.129C330.727 337.552 329.806 334.784 328.775 331.825C327.984 329.542 327.118 327.112 326.161 324.46C325.903 323.705 325.608 322.932 325.314 322.159C324.356 319.562 323.325 316.801 322.184 313.891C329.034 311.95 336.003 310.45 343.045 309.399C350.524 308.222 358.07 307.515 365.637 307.281C375.415 307.281 386.665 308.183 386.665 308.183C386.665 308.183 388.248 308.533 389.261 317.776C390.126 326.522 395.484 354.473 393.477 386.069Z" fill="#263238"/>
<path d="M365.011 310.34C364.518 310.09 364.007 309.875 363.483 309.696C362.305 308.775 360.905 306.566 360.979 301.207C361.018 299.104 361.208 297.005 361.55 294.929L346.636 292.148C346.636 292.148 351.718 302.183 347.483 309.64C346.028 310.285 345.144 311.206 345.31 312.421C346.433 321.038 362.857 322.732 362.857 322.732C362.857 322.732 373.997 315.293 365.011 310.34Z" fill="#EEC1BB"/>
<path opacity="0.2" d="M361.55 294.929C359.801 299.661 355.916 302.938 349.103 304.246C349.33 300.068 348.48 295.903 346.636 292.148L361.55 294.929Z" fill="black"/>
<path d="M369.155 244.993C369.155 244.993 367.314 229.121 381.915 234.332C396.516 239.542 394.619 266.075 401.635 274.839C408.65 283.604 413.898 282.646 413.898 282.646C413.898 282.646 405.133 289.901 396.737 285.887C388.341 281.873 369.155 244.993 369.155 244.993Z" fill="#263238"/>
<path d="M368.952 247.443L372.414 245.086C373.698 245.39 374.902 245.966 375.944 246.777C376.986 247.587 377.842 248.611 378.453 249.781C379.768 252.142 380.548 254.763 380.736 257.459L376.059 259.466L368.952 247.443Z" fill="#C52D95"/>
<path d="M351.478 247.093C351.478 247.093 333.894 245.86 331.464 260.111C330.752 264.158 331.207 268.325 332.776 272.123C334.344 275.921 336.961 279.195 340.32 281.562L351.478 247.093Z" fill="#263238"/>
<path d="M353.54 254.492C340.559 254.492 336.38 261.471 335.441 274.857C334.281 291.575 338 303.47 354.24 299.879C376.225 295 375.046 254.474 353.54 254.492Z" fill="#EEC1BB"/>
<path d="M343.782 274.121C342.775 276.061 341.539 277.872 340.1 279.516C340.48 280.051 341.002 280.471 341.606 280.727C342.211 280.984 342.875 281.068 343.524 280.971L343.782 274.121Z" fill="#D4827D"/>
<path d="M351.699 273.126C351.699 274.194 352.233 275.078 352.933 275.078C353.633 275.078 354.24 274.25 354.277 273.237C354.314 272.224 353.743 271.285 353.025 271.285C352.307 271.285 351.699 271.985 351.699 273.126Z" fill="#263238"/>
<path d="M353.356 271.284L351.055 270.309C351.055 270.309 352.178 272.224 353.356 271.284Z" fill="#263238"/>
<path d="M338.479 272.537C338.479 273.605 339.012 274.378 339.712 274.488C340.412 274.599 341.019 273.66 341.056 272.647C341.093 271.634 340.522 270.695 339.804 270.695C339.086 270.695 338.497 271.469 338.479 272.537Z" fill="#263238"/>
<path d="M340.099 270.695L337.798 269.719C337.798 269.719 338.921 271.707 340.099 270.695Z" fill="#263238"/>
<path d="M357.481 266.664C357.389 266.667 357.299 266.649 357.215 266.61C357.132 266.572 357.059 266.515 357.002 266.443C356.343 265.792 355.545 265.298 354.669 264.998C353.792 264.699 352.859 264.601 351.939 264.713C351.771 264.729 351.604 264.681 351.471 264.578C351.337 264.476 351.248 264.326 351.221 264.16C351.21 264.078 351.217 263.994 351.239 263.915C351.261 263.835 351.299 263.76 351.35 263.695C351.402 263.63 351.466 263.576 351.538 263.535C351.611 263.495 351.691 263.47 351.773 263.461C352.905 263.317 354.055 263.439 355.131 263.816C356.208 264.193 357.183 264.815 357.978 265.633C358.096 265.754 358.162 265.916 358.162 266.084C358.162 266.253 358.096 266.415 357.978 266.536C357.909 266.591 357.829 266.631 357.743 266.653C357.658 266.675 357.568 266.679 357.481 266.664Z" fill="#263238"/>
<path d="M337.245 265.245C337.14 265.246 337.037 265.221 336.944 265.173C336.851 265.125 336.771 265.055 336.711 264.969C336.663 264.899 336.63 264.82 336.614 264.738C336.597 264.655 336.598 264.57 336.615 264.487C336.632 264.405 336.666 264.327 336.714 264.257C336.762 264.188 336.824 264.13 336.895 264.085C337.701 263.474 338.635 263.053 339.627 262.856C340.619 262.658 341.643 262.688 342.621 262.943C342.778 263.001 342.907 263.119 342.979 263.27C343.051 263.421 343.062 263.595 343.008 263.753C342.95 263.91 342.833 264.039 342.681 264.111C342.53 264.183 342.357 264.194 342.198 264.14C341.403 263.959 340.579 263.956 339.783 264.131C338.987 264.306 338.24 264.655 337.595 265.153C337.486 265.209 337.367 265.24 337.245 265.245Z" fill="#263238"/>
<path d="M367.699 276.367C367.699 276.367 361.623 265.706 362.525 257.476C362.525 257.476 336.748 246.98 335.551 273.108C335.551 273.108 332.992 249.926 355.326 249.374C377.661 248.822 377.587 281.486 366.079 291.244C366.079 291.244 371.474 283.032 367.699 276.367Z" fill="#263238"/>
<path d="M349.213 246.208C349.213 246.208 338.423 244.201 335.569 247.184C332.715 250.167 355.308 268.837 366.668 270.218C366.668 270.218 371.179 282.444 368.509 288.447C368.509 288.447 380.92 283.31 380.441 264.013C379.962 244.717 359.266 238.604 349.213 246.208Z" fill="#263238"/>
<path d="M365.582 279.111C365.709 277.609 366.425 276.218 367.573 275.241C368.722 274.265 370.21 273.783 371.713 273.9C375.746 274.342 377.661 282.591 367.663 284.598C366.226 284.874 365.416 283.475 365.582 279.111Z" fill="#EEC1BB"/>
<path d="M342.18 285.591C343.069 287.185 343.844 288.84 344.5 290.544L345.439 290.341C349.71 289.402 351.386 287.561 351.938 285.794C352.196 284.933 352.24 284.023 352.067 283.142C351.989 282.639 351.841 282.149 351.625 281.688C349.241 283.433 346.51 284.645 343.616 285.241C342.732 285.481 342.18 285.591 342.18 285.591Z" fill="#263238"/>
<path d="M343.616 285.241L344.353 286.677C348.367 285.794 351.073 284.634 352.068 283.142C351.99 282.639 351.841 282.149 351.626 281.688C349.242 283.433 346.51 284.645 343.616 285.241Z" fill="white"/>
<path d="M345.438 290.345C349.71 289.406 351.386 287.564 351.938 285.797C350.325 286.193 348.792 286.866 347.409 287.785C346.503 288.415 345.815 289.309 345.438 290.345Z" fill="#DE5753"/>
<path d="M441.239 654.564C441.179 654.552 441.125 654.52 441.085 654.473C441.045 654.427 441.021 654.368 441.018 654.306C441.005 654.248 441.012 654.186 441.039 654.132C441.066 654.079 441.111 654.036 441.166 654.012C441.626 653.717 445.787 651.158 447.205 651.894C447.366 651.969 447.503 652.089 447.597 652.239C447.692 652.389 447.741 652.564 447.739 652.741C447.777 653.047 447.738 653.356 447.625 653.643C447.513 653.929 447.33 654.182 447.095 654.38C446.374 654.88 445.502 655.114 444.627 655.043C443.484 655.004 442.349 654.843 441.239 654.564ZM442.123 654.141C443.632 654.653 445.279 654.567 446.726 653.901C446.875 653.765 446.99 653.596 447.06 653.407C447.131 653.218 447.155 653.015 447.131 652.815C447.131 652.557 447.021 652.447 446.929 652.447C446.803 652.41 446.669 652.41 446.542 652.447C444.974 652.724 443.474 653.299 442.123 654.141Z" fill="#263238"/>
<path d="M369.431 654.564C369.371 654.552 369.316 654.52 369.276 654.473C369.236 654.427 369.213 654.368 369.21 654.306C369.196 654.248 369.203 654.186 369.23 654.132C369.257 654.079 369.302 654.036 369.357 654.012C369.817 653.717 373.979 651.158 375.397 651.894C375.558 651.969 375.694 652.089 375.789 652.239C375.883 652.389 375.933 652.564 375.931 652.741C375.969 653.047 375.929 653.356 375.817 653.643C375.704 653.929 375.522 654.182 375.286 654.38C374.565 654.88 373.693 655.114 372.819 655.043C371.676 655.004 370.54 654.843 369.431 654.564ZM370.315 654.141C371.823 654.653 373.471 654.567 374.918 653.901C375.067 653.765 375.181 653.596 375.252 653.407C375.322 653.218 375.346 653.015 375.323 652.815C375.323 652.557 375.212 652.447 375.12 652.447C374.994 652.41 374.86 652.41 374.734 652.447C373.166 652.724 371.666 653.299 370.315 654.141Z" fill="#263238"/>
<path d="M369.357 654.636C369.304 654.609 369.261 654.566 369.234 654.513C369.208 654.46 369.199 654.4 369.209 654.341C369.209 654.176 369.522 650.456 371.051 649.241C371.229 649.088 371.438 648.975 371.663 648.909C371.888 648.842 372.125 648.824 372.358 648.854C372.589 648.855 372.814 648.936 372.992 649.084C373.17 649.231 373.291 649.437 373.334 649.664C373.61 651.027 371.032 653.863 369.651 654.581H369.504L369.357 654.636ZM371.419 649.609C370.519 650.771 369.986 652.175 369.891 653.642C371.216 652.647 372.855 650.493 372.689 649.664C372.689 649.572 372.689 649.351 372.247 649.351H372.1C371.85 649.353 371.608 649.445 371.419 649.609Z" fill="#263238"/>
<path d="M440.356 652.776H424.686C424.429 652.774 424.179 652.861 423.977 653.022C423.776 653.183 423.637 653.408 423.582 653.66L421.041 665.149C420.982 665.394 420.973 665.648 421.016 665.896C421.059 666.144 421.153 666.381 421.291 666.591C421.429 666.802 421.609 666.982 421.819 667.12C422.029 667.259 422.266 667.352 422.514 667.396C422.648 667.414 422.784 667.414 422.919 667.396C428.001 667.303 431.683 666.99 438.054 666.99C441.976 666.99 453.815 667.414 459.229 667.414C464.642 667.414 465.342 662.056 463.132 661.559C453.189 659.404 445.695 656.403 442.528 653.531C441.925 653.014 441.149 652.745 440.356 652.776Z" fill="#C52D95"/>
<path d="M368.547 652.776H352.878C352.62 652.774 352.37 652.861 352.169 653.022C351.968 653.183 351.828 653.408 351.773 653.66L349.232 665.149C349.173 665.394 349.165 665.648 349.208 665.896C349.251 666.144 349.344 666.381 349.482 666.591C349.62 666.802 349.8 666.982 350.01 667.12C350.221 667.259 350.457 667.352 350.705 667.396C350.84 667.414 350.976 667.414 351.11 667.396C356.192 667.303 359.875 666.99 366.245 666.99C370.167 666.99 382.007 667.414 387.42 667.414C392.833 667.414 393.533 662.056 391.324 661.559C381.381 659.404 373.887 656.403 370.72 653.531C370.117 653.014 369.341 652.745 368.547 652.776Z" fill="#C52D95"/>
<path opacity="0.2" d="M331.445 340.168C330.635 337.59 329.714 334.822 328.683 331.864C327.891 329.581 327.026 327.15 326.068 324.499C326.538 323.35 327.247 322.314 328.149 321.461C328.149 321.461 332.016 332.048 331.445 340.168Z" fill="black"/>
<path d="M322.128 314.02C315.445 317.316 295.485 349.004 301.175 359.665C306.864 370.326 332.476 379.698 332.476 379.698C332.476 379.698 321.797 385.572 322.165 387.063C322.533 388.554 331.372 394.428 332.476 394.428C335.549 392.082 338.43 389.496 341.093 386.695C342.364 385.259 341.259 379.219 341.259 379.219C334.041 373.346 314.211 359.205 312.996 356.038C311.78 352.871 328.499 331.052 328.499 331.052C328.499 331.052 328.978 321.993 326.971 317.942C324.964 313.891 322.128 314.02 322.128 314.02Z" fill="#EEC1BB"/>
<path d="M320.913 344.401L306.054 333.243C311.835 325.233 316.402 313.762 322.128 314.02C327.854 314.278 328.812 322.25 328.72 331.862L320.913 344.401Z" fill="#263238"/>
<path d="M668.489 236.838C668.489 236.838 654.919 229.308 643.853 234.997C638.753 237.575 636.967 244.204 635.88 249.322C634.389 256.503 634.15 263.887 633.118 271.141C632.757 274.212 631.879 277.2 630.522 279.979C628.681 283.662 624.796 287.344 625.569 291.855C626.232 295.833 630.301 298.226 633.855 299.313C643.264 302.203 653.925 300.602 663.647 301.154C671.472 301.651 679.04 304.302 686.883 304.487C689.116 304.68 691.358 304.233 693.346 303.198C700.914 298.687 697.618 287.087 695.188 280.642C693.107 275.118 694.635 269.595 693.972 263.831C693.492 258.78 692.302 253.821 690.437 249.101C686.497 239.803 678.616 234.868 668.489 236.838Z" fill="#263238"/>
<path d="M603.328 334.259C605.85 334.038 630.781 317.854 630.781 317.854L631.665 311.096L632.604 303.731C628.921 303.602 606.55 321.463 603.346 323.028C596.846 326.231 597.583 334.738 603.328 334.259Z" fill="#EBB376"/>
<path opacity="0.2" d="M624.06 322.146L630.78 317.838L631.719 310.602L624.06 322.146Z" fill="black"/>
<path d="M696.845 306.551C696.845 306.551 685.687 317.893 684.306 366.116L634.352 362.083C634.352 362.083 626.398 327.67 632.511 303.347C653.873 298.851 676.035 299.955 696.845 306.551Z" fill="#C52D95"/>
<path opacity="0.4" d="M696.845 306.551C696.845 306.551 685.687 317.893 684.306 366.116L634.352 362.083C634.352 362.083 626.398 327.67 632.511 303.347C653.873 298.851 676.035 299.955 696.845 306.551Z" fill="white"/>
<path d="M590.567 639.927L600.547 641.695L604.653 628.07L608.391 615.568L596.864 611.535L593.513 626.56L590.567 639.927Z" fill="#EBB376"/>
<path opacity="0.2" d="M593.458 626.873L604.598 628.347L608.354 615.697L596.846 611.609L593.458 626.873Z" fill="black"/>
<path d="M657.258 644.531H667.422L669.079 630.242L670.589 617.188L658.547 615.199L657.865 630.721L657.258 644.531Z" fill="#EBB376"/>
<path opacity="0.2" d="M657.865 630.851L669.079 630.354L670.588 617.263L658.546 615.219L657.865 630.851Z" fill="black"/>
<path d="M592.519 618.938L608.943 621.847C625.514 580.548 637.317 546.079 645.639 517.466C650.132 502.036 653.87 488.3 656.558 476.111L656.061 521.075V622.344H672.245C712.753 429.011 683.68 372.466 683.68 372.466L634.334 369.336C632.492 376.572 632.271 396.034 631.461 404.21L629.27 420.431L610.287 518.442L592.519 618.938Z" fill="#263238"/>
<path opacity="0.2" d="M645.64 517.467C650.132 502.037 653.631 488.301 656.319 476.112C656.087 461.696 655.036 447.305 653.17 433.008C653.17 433.008 646.063 488.559 645.64 517.467Z" fill="black"/>
<path d="M684.306 366.114L634.353 362.082V370.57L685.043 375.045L684.306 366.114Z" fill="black"/>
<path d="M648.143 365.837V369.759C648.14 370.529 648.426 371.272 648.944 371.841C649.462 372.41 650.175 372.765 650.942 372.834L657.129 373.368H657.35C658.119 373.364 658.861 373.076 659.43 372.558C659.746 372.271 659.997 371.921 660.168 371.531C660.34 371.141 660.427 370.719 660.425 370.293V366.353C660.432 365.581 660.148 364.836 659.629 364.266C659.109 363.696 658.394 363.343 657.626 363.278L651.439 362.744C651.015 362.711 650.588 362.766 650.186 362.905C649.784 363.045 649.415 363.266 649.102 363.554C648.789 363.843 648.539 364.193 648.368 364.583C648.197 364.972 648.108 365.393 648.106 365.819L648.143 365.837ZM649.727 369.759V368.47L651.458 368.599C651.602 368.626 651.751 368.622 651.894 368.588C652.037 368.554 652.172 368.491 652.289 368.401C652.406 368.312 652.503 368.199 652.573 368.069C652.643 367.94 652.686 367.797 652.697 367.651C652.709 367.504 652.69 367.356 652.641 367.218C652.592 367.079 652.514 366.952 652.413 366.845C652.311 366.738 652.189 366.654 652.053 366.598C651.917 366.541 651.77 366.514 651.623 366.518L649.892 366.371H649.653V365.782C649.649 365.574 649.69 365.368 649.773 365.178C649.855 364.987 649.978 364.816 650.132 364.677C650.401 364.425 650.757 364.287 651.126 364.29H651.273L657.442 364.824C657.816 364.852 658.166 365.022 658.419 365.3C658.672 365.577 658.81 365.94 658.804 366.316V370.256C658.806 370.463 658.764 370.669 658.681 370.859C658.599 371.049 658.478 371.22 658.325 371.361C658.173 371.501 657.992 371.606 657.795 371.67C657.598 371.733 657.389 371.754 657.184 371.729L651.016 371.195C650.669 371.143 650.351 370.971 650.119 370.708C649.887 370.446 649.754 370.109 649.745 369.759H649.727Z" fill="white"/>
<path d="M671.031 301.541C671.945 301.856 672.699 302.517 673.13 303.382C668.275 306.945 662.376 308.797 656.356 308.648C654.662 308.648 651.145 303.861 653.778 302.388C654.265 302.132 654.769 301.91 655.288 301.725C656.411 300.823 657.792 298.632 657.7 293.366C657.647 291.292 657.444 289.224 657.092 287.179L671.822 284.344C671.822 284.344 666.814 294.231 671.031 301.541Z" fill="#EBB376"/>
<path opacity="0.2" d="M657.092 287.144C657.444 289.189 657.647 291.257 657.699 293.331C667.624 293.331 671.767 284.309 671.767 284.309L657.092 287.144Z" fill="black"/>
<path d="M605.997 634.46L586.755 630.777V644.458C586.755 644.458 576.923 660.79 572.67 661.895C571.504 662.204 570.503 662.951 569.876 663.98C569.248 665.009 569.042 666.241 569.3 667.419H590.549L595.704 661.25L596.827 667.419H600.915C600.915 667.419 605.223 654.99 600.915 646.262L605.997 634.46Z" fill="#263238"/>
<path d="M673.921 632.75L654.68 634.241L656.374 644.534C656.374 644.534 646.523 660.866 642.27 661.971C641.103 662.276 640.1 663.023 639.475 664.054C638.849 665.085 638.65 666.319 638.919 667.495H660.167L665.322 661.326L666.427 667.495H670.515C670.515 667.495 674.823 655.066 670.515 646.339L673.921 632.75Z" fill="#263238"/>
<path d="M662.137 245.641C649.249 245.641 645.216 252.49 644.277 265.655C643.099 282.135 646.744 293.827 662.69 290.328C684.454 285.559 683.367 245.659 662.137 245.641Z" fill="#EBB376"/>
<path d="M652.544 264.957C651.532 266.865 650.296 268.645 648.861 270.26C649.235 270.787 649.748 271.201 650.343 271.454C650.938 271.708 651.591 271.791 652.231 271.696L652.544 264.957Z" fill="#D58745"/>
<path d="M660.37 263.924C660.37 264.973 660.904 265.765 661.604 265.765C662.303 265.765 662.893 264.955 662.911 263.924C662.929 262.893 662.395 262.083 661.696 261.991C660.996 261.898 660.407 262.856 660.37 263.924Z" fill="#263238"/>
<path d="M661.972 262.082L659.707 261.125C659.707 261.125 660.812 263.095 661.972 262.082Z" fill="#263238"/>
<path d="M647.315 263.371C647.315 264.421 647.849 265.213 648.549 265.305C649.249 265.397 649.838 264.494 649.856 263.463C649.875 262.432 649.341 261.622 648.641 261.53C647.941 261.438 647.352 262.322 647.315 263.371Z" fill="#263238"/>
<path d="M648.917 261.567L646.671 260.609C646.671 260.609 647.757 262.561 648.917 261.567Z" fill="#263238"/>
<path d="M666.06 257.645C665.964 257.646 665.869 257.625 665.783 257.583C665.697 257.542 665.622 257.481 665.562 257.406C664.913 256.77 664.13 256.287 663.269 255.994C662.409 255.701 661.494 255.604 660.591 255.712C660.509 255.722 660.425 255.716 660.345 255.694C660.265 255.671 660.191 255.633 660.126 255.582C660.061 255.531 660.006 255.467 659.966 255.394C659.926 255.322 659.9 255.242 659.891 255.16C659.878 255.078 659.882 254.995 659.902 254.915C659.922 254.836 659.958 254.761 660.008 254.695C660.058 254.63 660.121 254.575 660.193 254.535C660.264 254.494 660.344 254.469 660.425 254.46C661.54 254.309 662.675 254.42 663.739 254.785C664.804 255.149 665.768 255.756 666.557 256.559C666.609 256.623 666.648 256.697 666.672 256.776C666.695 256.855 666.703 256.938 666.695 257.02C666.686 257.102 666.661 257.182 666.622 257.254C666.582 257.327 666.529 257.391 666.465 257.443C666.416 257.504 666.355 257.554 666.285 257.589C666.215 257.624 666.138 257.643 666.06 257.645Z" fill="#263238"/>
<path d="M646.119 256.208C645.98 256.213 645.844 256.172 645.731 256.092C645.618 256.011 645.535 255.896 645.495 255.763C645.455 255.63 645.461 255.488 645.51 255.359C645.559 255.229 645.65 255.12 645.769 255.048C646.569 254.447 647.495 254.036 648.478 253.845C649.46 253.654 650.472 253.687 651.44 253.943C651.594 254.005 651.718 254.123 651.786 254.274C651.855 254.425 651.863 254.597 651.808 254.753C651.779 254.831 651.736 254.902 651.679 254.963C651.623 255.023 651.555 255.072 651.48 255.106C651.405 255.141 651.323 255.16 651.24 255.162C651.158 255.165 651.075 255.151 650.998 255.121C650.216 254.94 649.404 254.935 648.621 255.107C647.837 255.279 647.102 255.624 646.468 256.116C646.36 256.172 646.241 256.203 646.119 256.208Z" fill="#263238"/>
<path d="M676.094 267.202C676.094 267.202 670.128 256.707 671.03 248.587C671.03 248.587 645.695 238.22 644.424 263.943C644.424 263.943 641.975 241.093 663.96 240.596C685.945 240.098 685.816 272.265 674.455 281.84C674.455 281.84 679.795 273.775 676.094 267.202Z" fill="#263238"/>
<path d="M674.014 269.91C674.065 269.173 674.262 268.455 674.595 267.796C674.929 267.138 675.39 266.553 675.953 266.076C676.516 265.598 677.169 265.239 677.873 265.018C678.577 264.798 679.319 264.72 680.053 264.791C684.012 265.214 685.89 273.353 676.039 275.305C674.622 275.581 673.922 274.2 674.014 269.91Z" fill="#EBB376"/>
<path d="M651.826 274.973C652.453 276.535 652.964 278.141 653.354 279.779H654.238C658.252 279.429 660.001 277.937 660.738 276.409C661.239 275.198 661.304 273.851 660.922 272.598C658.541 273.914 655.902 274.7 653.189 274.899C652.323 274.973 651.826 274.973 651.826 274.973Z" fill="#263238"/>
<path d="M653.152 274.86L653.649 276.26C657.424 275.928 660.039 275.192 661.125 273.94C661.107 273.471 661.027 273.006 660.886 272.559C658.504 273.875 655.866 274.661 653.152 274.86Z" fill="white"/>
<path d="M654.201 279.741C658.215 279.391 659.964 277.899 660.701 276.371C659.177 276.521 657.692 276.945 656.319 277.623C655.412 278.095 654.673 278.834 654.201 279.741Z" fill="#DE5753"/>
<path opacity="0.2" d="M673.774 344.057C676.665 346.322 682.115 344.259 686.111 341.718C687.952 331.407 688.67 323.619 690.419 318.242C687.547 321.004 668.49 339.895 673.774 344.057Z" fill="black"/>
<path d="M652.82 334.996C652.736 334.983 652.657 334.947 652.592 334.892C652.527 334.837 652.478 334.764 652.452 334.683C652.194 333.726 646.339 311.06 651.071 300.675C651.093 300.622 651.126 300.574 651.166 300.534C651.207 300.495 651.256 300.463 651.309 300.443C651.363 300.422 651.42 300.412 651.477 300.414C651.534 300.416 651.59 300.43 651.642 300.454C651.742 300.506 651.819 300.593 651.856 300.699C651.894 300.805 651.89 300.922 651.845 301.025C647.812 309.845 651.845 328.533 653.005 333.339C660.627 317.983 676.812 301.909 676.941 301.743C676.979 301.703 677.025 301.671 677.075 301.649C677.126 301.627 677.18 301.616 677.236 301.616C677.291 301.616 677.345 301.627 677.396 301.649C677.447 301.671 677.492 301.703 677.53 301.743C677.608 301.825 677.651 301.934 677.651 302.047C677.651 302.16 677.608 302.269 677.53 302.351C677.364 302.516 660.535 319.235 653.207 334.757C653.172 334.829 653.117 334.89 653.049 334.933C652.98 334.975 652.901 334.997 652.82 334.996Z" fill="white"/>
<path d="M652.6 342.51C651.75 342.514 650.917 342.265 650.209 341.795C649.501 341.325 648.948 340.655 648.621 339.87C648.294 339.085 648.208 338.221 648.373 337.387C648.537 336.553 648.946 335.787 649.548 335.186C650.149 334.585 650.915 334.176 651.749 334.011C652.583 333.846 653.447 333.933 654.231 334.26C655.016 334.587 655.686 335.14 656.156 335.848C656.626 336.556 656.875 337.388 656.871 338.238C656.871 339.371 656.421 340.458 655.62 341.259C654.819 342.06 653.733 342.51 652.6 342.51ZM652.6 335.66C652.09 335.66 651.591 335.812 651.167 336.095C650.744 336.378 650.413 336.781 650.218 337.252C650.023 337.723 649.972 338.241 650.071 338.741C650.171 339.241 650.416 339.7 650.777 340.061C651.137 340.421 651.597 340.667 652.097 340.766C652.597 340.866 653.115 340.815 653.586 340.62C654.057 340.425 654.46 340.094 654.743 339.67C655.026 339.246 655.177 338.748 655.177 338.238C655.158 337.567 654.878 336.931 654.397 336.463C653.915 335.995 653.271 335.734 652.6 335.734V335.66Z" fill="#263238"/>
<path d="M653.778 322.291L649.064 313.085C649.064 313.085 649.745 304.707 649.064 304.044C648.383 303.381 639.011 299.367 635.641 299.367C632.272 299.367 631.959 311.685 633.303 313.085C634.647 314.484 643.172 317.32 643.172 317.32L651.716 323.709L653.778 322.291Z" fill="#EBB376"/>
<path d="M696.845 306.551C705.131 314.781 680.273 347.335 671.767 347.335C663.26 347.335 643.172 317.322 643.172 317.322L649.064 313.124C649.064 313.124 669.115 334.115 670.846 334.188C672.577 334.262 685.908 313.934 688.338 311.485C690.805 309.275 693.701 307.595 696.845 306.551Z" fill="#EBB376"/>
<path d="M489.537 308.244L479.889 302.72C478.688 300.726 477.212 298.91 475.506 297.325C473.518 295.834 465.343 293.643 465.343 293.643C462.323 292.98 460.721 293.919 459.819 295.687L455.234 306.108C454.479 307.949 454.534 308.796 455.234 308.925C455.234 308.925 471.143 312.866 475.083 309.422L484.879 315.112L489.537 308.244Z" fill="#EEC1BB"/>
<path d="M544.867 276.664C545.123 278.104 544.834 279.587 544.057 280.825C541.626 285.355 531.739 304.614 526.97 310.783C519.237 320.799 512.976 326.157 508.171 326.489C500.216 327.059 476.722 316.638 476.722 316.638L486.02 302.718C486.02 302.718 499.94 309.125 505.851 307.781C511.761 306.437 523.066 275.541 527.099 267.789C527.099 267.789 543.191 269.446 544.867 276.664Z" fill="#C52D95"/>
<path opacity="0.2" d="M519.531 319.419C518.13 321.278 516.347 322.817 514.302 323.93C517.69 316.565 522.827 288.246 522.827 288.246L519.531 319.419Z" fill="black"/>
<path d="M583.699 653.462H599.645C599.904 653.465 600.155 653.555 600.356 653.719C600.556 653.883 600.695 654.111 600.75 654.364L603.346 666.038C603.45 666.54 603.352 667.064 603.072 667.495C602.793 667.925 602.356 668.229 601.854 668.339C601.708 668.367 601.558 668.367 601.412 668.339C596.257 668.339 592.501 667.953 586.038 667.953C582.042 667.953 570.019 668.358 564.513 668.358C559.008 668.358 558.29 662.926 560.536 662.429C570.645 660.219 578.249 657.163 581.49 654.254C582.103 653.724 582.89 653.442 583.699 653.462Z" fill="#C52D95"/>
<path opacity="0.6" d="M583.699 653.462H599.645C599.904 653.465 600.155 653.555 600.356 653.719C600.556 653.883 600.695 654.111 600.75 654.364L603.346 666.038C603.45 666.54 603.352 667.064 603.072 667.495C602.793 667.925 602.356 668.229 601.854 668.339C601.708 668.367 601.558 668.367 601.412 668.339C596.257 668.339 592.501 667.953 586.038 667.953C582.042 667.953 570.019 668.358 564.513 668.358C559.008 668.358 558.29 662.926 560.536 662.429C570.645 660.219 578.249 657.163 581.49 654.254C582.103 653.724 582.89 653.442 583.699 653.462Z" fill="white"/>
<path d="M516.051 653.04H531.996C532.255 653.046 532.504 653.138 532.704 653.301C532.904 653.465 533.044 653.69 533.101 653.942L535.697 665.634C535.762 665.883 535.774 666.142 535.733 666.396C535.692 666.649 535.598 666.891 535.457 667.106C535.317 667.321 535.133 667.505 534.917 667.644C534.702 667.784 534.46 667.877 534.206 667.918H533.782C528.627 667.825 524.871 667.512 518.389 667.512C514.394 667.512 502.37 667.936 496.865 667.936C491.36 667.936 490.642 662.412 492.888 661.989C502.996 659.779 510.619 656.723 513.86 653.832C514.465 653.302 515.247 653.02 516.051 653.04Z" fill="#C52D95"/>
<path opacity="0.6" d="M516.051 653.04H531.996C532.255 653.046 532.504 653.138 532.704 653.301C532.904 653.465 533.044 653.69 533.101 653.942L535.697 665.634C535.762 665.883 535.774 666.142 535.733 666.396C535.692 666.649 535.598 666.891 535.457 667.106C535.317 667.321 535.133 667.505 534.917 667.644C534.702 667.784 534.46 667.877 534.206 667.918H533.782C528.627 667.825 524.871 667.512 518.389 667.512C514.394 667.512 502.37 667.936 496.865 667.936C491.36 667.936 490.642 662.412 492.888 661.989C502.996 659.779 510.619 656.723 513.86 653.832C514.465 653.302 515.247 653.02 516.051 653.04Z" fill="white"/>
<path d="M592.096 358.031H522.459C515.849 394.175 495.116 540.979 509.994 654.972H533.562C533.562 654.972 531.371 481.893 552.196 425.919C554.589 455.858 578.912 654.862 578.912 654.862H602.849C602.849 654.862 599.258 579.996 595.668 509.291C593.477 464.751 592.188 367.164 592.096 358.031Z" fill="#263238"/>
<path opacity="0.2" d="M592.096 358.031H522.459C515.849 394.175 495.116 540.979 509.994 654.972H533.562C533.562 654.972 531.371 481.893 552.196 425.919C554.589 455.858 578.912 654.862 578.912 654.862H602.849C602.849 654.862 599.258 579.996 595.668 509.291C593.477 464.751 592.188 367.164 592.096 358.031Z" fill="white"/>
<path opacity="0.2" d="M552.177 425.955C548.761 435.765 546.162 445.84 544.407 456.078C542.455 429.435 550.243 401.172 550.243 401.172L552.177 425.955Z" fill="black"/>
<path d="M531.481 366.464L520.985 366.353L521.888 358.859H531.481V366.464Z" fill="black"/>
<path d="M569.448 358.859H591.967V367.2L569.448 366.943V358.859Z" fill="black"/>
<path d="M566.944 366.906L533.985 366.501V358.859H566.944V366.906Z" fill="black"/>
<path d="M551.238 367.405H543.449C543.184 367.405 542.922 367.353 542.677 367.251C542.432 367.148 542.21 366.999 542.024 366.811C541.837 366.622 541.69 366.399 541.59 366.153C541.49 365.908 541.44 365.645 541.442 365.38V360.39C541.442 359.858 541.654 359.347 542.03 358.971C542.407 358.594 542.917 358.383 543.449 358.383H551.238C551.77 358.383 552.281 358.594 552.657 358.971C553.034 359.347 553.245 359.858 553.245 360.39V365.38C553.247 365.645 553.197 365.908 553.098 366.153C552.998 366.399 552.85 366.622 552.664 366.811C552.477 366.999 552.255 367.148 552.01 367.251C551.766 367.353 551.503 367.405 551.238 367.405ZM543.449 360.224C543.406 360.224 543.363 360.242 543.332 360.273C543.301 360.304 543.284 360.346 543.284 360.39V365.38C543.284 365.425 543.3 365.47 543.331 365.504C543.362 365.538 543.404 365.559 543.449 365.564H551.238C551.284 365.559 551.326 365.538 551.356 365.504C551.387 365.47 551.404 365.425 551.404 365.38V360.39C551.404 360.346 551.386 360.304 551.355 360.273C551.324 360.242 551.282 360.224 551.238 360.224H543.449Z" fill="white"/>
<path d="M552.177 363.591H548.144C547.9 363.591 547.666 363.494 547.493 363.322C547.321 363.149 547.224 362.915 547.224 362.671C547.224 362.426 547.321 362.192 547.493 362.02C547.666 361.847 547.9 361.75 548.144 361.75H552.177C552.421 361.75 552.655 361.847 552.828 362.02C553 362.192 553.097 362.426 553.097 362.671C553.097 362.915 553 363.149 552.828 363.322C552.655 363.494 552.421 363.591 552.177 363.591Z" fill="white"/>
<path d="M602.959 273.35C602.148 276.241 601.246 280.015 600.362 284.6C599.331 289.811 598.3 296.071 597.416 303.141C595.319 321.635 594.489 340.251 594.931 358.858L519.66 358.214C519.66 358.214 516.548 309.383 527.025 267.789L597.913 266.905C598.711 266.878 599.503 267.039 600.227 267.376C600.95 267.713 601.583 268.216 602.075 268.845C602.567 269.473 602.903 270.208 603.057 270.991C603.21 271.774 603.177 272.582 602.959 273.35Z" fill="#C52D95"/>
<path opacity="0.2" d="M600.363 284.601C599.331 289.812 597.49 303.547 596.588 310.618C589.646 307.248 589.131 289.02 589.131 289.02C592.187 288.578 598.89 283.238 600.363 284.601Z" fill="black"/>
<path d="M555.62 274.344C555.62 274.344 570.516 274.473 575.874 268.286C572.504 265.432 571.05 259.761 570.608 253.685C570.328 249.39 570.408 245.078 570.847 240.796C570.957 239.397 571.123 238.108 571.289 236.93L554.902 252.617C554.902 252.893 555.067 253.17 555.159 253.464C555.399 254.293 555.62 255.158 555.785 255.987C556.266 258.026 556.347 260.14 556.025 262.21C555.956 263.622 555.664 265.014 555.159 266.335C554.625 267.2 553.539 267.9 551.127 268.618C549.488 271.638 555.62 274.344 555.62 274.344Z" fill="#EEC1BB"/>
<path opacity="0.2" d="M555.086 266.261C560.131 264.42 566.355 256.705 570.184 249.837C570.016 246.786 570.214 243.726 570.774 240.723L555.086 253.391C555.325 254.219 555.546 255.085 555.712 255.913C556.192 257.953 556.273 260.066 555.951 262.137C555.882 263.548 555.59 264.94 555.086 266.261Z" fill="black"/>
<path d="M538.68 210.379C538.68 210.379 533.948 227.797 542.565 235.678C551.182 243.559 554.975 210.526 554.975 210.526L538.68 210.379Z" fill="#263238"/>
<path d="M568.251 252.878C565.95 255.571 562.827 257.433 559.364 258.178C555.901 258.923 552.289 258.51 549.084 257.003C544.92 255.12 541.628 251.723 539.878 247.502C539.617 246.903 539.395 246.288 539.215 245.66C535.827 234.3 536.526 215.187 548.789 209.406C550.865 208.411 553.117 207.834 555.415 207.709C557.714 207.585 560.014 207.914 562.186 208.678C564.357 209.442 566.357 210.627 568.071 212.164C569.784 213.701 571.178 215.56 572.173 217.636C573.379 220.111 573.973 222.839 573.904 225.591C573.812 238.479 574.383 246.01 568.251 252.878Z" fill="#EEC1BB"/>
<path d="M554.626 230.304C554.755 231.335 554.184 232.145 553.484 232.255C552.785 232.366 552.214 231.464 552.158 230.414C552.103 229.365 552.6 228.573 553.282 228.462C553.963 228.352 554.552 229.254 554.626 230.304Z" fill="#263238"/>
<path d="M542.841 230.948C542.97 231.979 542.381 232.789 541.718 232.899C541.055 233.01 540.429 232.108 540.374 231.058C540.319 230.009 540.834 229.217 541.497 229.106C542.16 228.996 542.786 229.953 542.841 230.948Z" fill="#263238"/>
<path d="M546.617 231.262C545.546 234.521 544.034 237.618 542.124 240.468C542.869 240.941 543.708 241.245 544.582 241.359C545.457 241.474 546.346 241.396 547.188 241.131L546.617 231.262Z" fill="#D4827D"/>
<path d="M538.275 226.344C538.378 226.39 538.491 226.406 538.602 226.39C538.713 226.373 538.817 226.326 538.901 226.252C539.493 225.771 540.188 225.431 540.931 225.258C541.675 225.086 542.448 225.086 543.192 225.258C543.266 225.287 543.346 225.299 543.426 225.295C543.506 225.29 543.584 225.269 543.655 225.233C543.726 225.196 543.789 225.145 543.839 225.083C543.889 225.021 543.926 224.949 543.946 224.871C543.972 224.796 543.982 224.717 543.977 224.638C543.971 224.559 543.95 224.482 543.913 224.412C543.877 224.341 543.827 224.279 543.767 224.228C543.706 224.177 543.636 224.139 543.56 224.116C542.619 223.881 541.635 223.873 540.69 224.094C539.745 224.315 538.867 224.758 538.128 225.387C538.063 225.436 538.008 225.497 537.967 225.567C537.926 225.638 537.9 225.716 537.89 225.796C537.879 225.877 537.885 225.959 537.907 226.037C537.929 226.116 537.967 226.189 538.018 226.252L538.275 226.344Z" fill="#263238"/>
<path d="M556.688 225.477C556.81 225.473 556.927 225.428 557.02 225.348C557.071 225.287 557.109 225.217 557.132 225.141C557.156 225.064 557.163 224.984 557.155 224.905C557.146 224.826 557.121 224.749 557.082 224.68C557.043 224.611 556.991 224.55 556.927 224.501C556.169 223.876 555.27 223.445 554.307 223.246C553.344 223.047 552.348 223.086 551.404 223.36C551.252 223.414 551.127 223.525 551.055 223.669C550.983 223.813 550.97 223.979 551.017 224.133C551.079 224.283 551.193 224.406 551.339 224.477C551.485 224.548 551.652 224.564 551.809 224.52C552.553 224.331 553.331 224.32 554.08 224.49C554.829 224.66 555.527 225.004 556.117 225.496C556.208 225.534 556.306 225.552 556.405 225.549C556.503 225.546 556.6 225.521 556.688 225.477Z" fill="#263238"/>
<path d="M563.593 210.195L562.488 212.644C566.723 213.988 565.931 218.904 565.084 221.151C563.243 225.92 566.06 233.266 569.724 236.176C569.724 236.176 569.724 234.113 571.566 234.592C573.407 235.071 572.891 245.787 569.54 250.924C569.54 250.924 574.641 246.266 577.458 234.997C580.054 224.557 580.33 215.885 578.157 211.871L563.593 210.195Z" fill="#263238"/>
<path d="M580.017 235.844C578.757 238.813 576.374 241.163 573.388 242.381C569.411 243.964 566.962 240.54 567.68 236.526C568.343 232.972 571.197 227.78 575.377 227.945C576.28 228.001 577.155 228.278 577.926 228.752C578.697 229.225 579.339 229.881 579.798 230.661C580.256 231.441 580.515 232.321 580.554 233.225C580.592 234.129 580.408 235.028 580.017 235.844Z" fill="#EEC1BB"/>
<path d="M547.537 244.685C548.463 246.293 549.269 247.967 549.949 249.693L550.907 249.49C555.234 248.515 556.909 246.618 557.462 244.832C557.705 243.95 557.743 243.024 557.572 242.125C557.481 241.615 557.32 241.119 557.093 240.652C554.692 242.442 551.936 243.698 549.01 244.335C548.126 244.574 547.537 244.685 547.537 244.685Z" fill="#263238"/>
<path d="M549.01 244.334L549.765 245.788C553.834 244.849 556.577 243.652 557.572 242.106C557.48 241.595 557.319 241.1 557.093 240.633C554.694 242.429 551.937 243.691 549.01 244.334Z" fill="white"/>
<path d="M550.906 249.49C555.233 248.515 556.909 246.618 557.461 244.832C555.824 245.236 554.272 245.928 552.876 246.876C551.957 247.514 551.266 248.43 550.906 249.49Z" fill="#DE5753"/>
<path d="M538.681 210.38C539.693 204.562 542.363 199.738 545.438 194.066L546.34 200.677C547.799 198.182 549.808 196.053 552.214 194.453L553.392 201.56C554.773 198.504 557.867 196.736 561.899 195.687L561.31 201.818C563.105 199.098 565.838 197.132 568.988 196.294L568.675 202.113C569.129 201.366 569.759 200.742 570.51 200.296C571.261 199.85 572.111 199.595 572.983 199.553L578.157 211.798L565.582 215.849L541.13 216.677L538.681 210.38Z" fill="#263238"/>
<path d="M611.005 357.828L610.361 369.152C611.391 371.278 612.11 373.542 612.497 375.873C612.644 378.395 607.231 395.059 607.231 395.059L593.826 388.172C593.826 388.172 596.846 370.809 601.983 369.391L602.627 357.902L611.005 357.828Z" fill="#EEC1BB"/>
<path d="M602.922 270.441C612.681 291.008 623.452 310.839 620.837 323.415L613.785 367.402L600.215 366.85L604.782 326.526C609.017 319.161 596.938 302.94 589.131 289.057L602.922 270.441Z" fill="#C52D95"/>
<path d="M603.714 323.047L632.824 339.545L627.245 344.645L601.32 333.837L603.714 323.047Z" fill="#EBB376"/>
<path d="M620.616 336.729L627.245 344.646C627.245 344.646 628.46 352.95 629.252 353.447C630.043 353.944 640.115 355.767 643.374 355.012C646.633 354.257 644.24 342.123 642.619 341.129C640.999 340.135 632.069 339.288 632.069 339.288L622.31 334.961L620.616 336.729Z" fill="#EBB376"/>
<path opacity="0.2" d="M461.089 472.28C453.908 455.985 447.132 441.918 447.132 441.918C446.92 439.019 447.2 436.106 447.96 433.301C448.989 432.641 450.122 432.161 451.312 431.883C451.312 431.883 460.039 445.6 461.089 472.28Z" fill="black"/>
<path d="M515.83 655.211L524.208 652.928C521.133 610.689 512.847 559.742 505.795 521.535C504.672 515.533 503.623 509.88 502.591 504.596C502.094 502.091 501.634 499.679 501.174 497.359C498.946 485.925 497.049 476.866 495.889 471.269L494.545 464.953L464.44 473.681L466.963 481.193L475.23 506.253L476.169 509.107L481.693 525.678L490.991 553.849C492.244 596.954 515.83 655.211 515.83 655.211Z" fill="#EBB376"/>
<path d="M442.805 653.168L451.459 652.339C455.97 606.528 456.154 549.523 455.528 509.899C455.528 503.749 455.307 498.022 455.197 492.83C455.197 492.554 455.197 492.315 455.197 492.057C454.939 481.746 454.681 473.534 454.478 468.341L454.221 462.062L423.066 465.543L425 478.431L427.835 497.47L428.406 501.153L430.247 514.041L435.458 548.86C429.474 591.669 442.805 653.168 442.805 653.168Z" fill="#EBB376"/>
<path opacity="0.2" d="M427.817 497.542L455.197 492.829C455.197 492.553 455.197 492.313 455.197 492.055C454.939 481.744 454.681 473.532 454.479 468.34L425.019 478.504L427.817 497.542Z" fill="black"/>
<path opacity="0.2" d="M499.001 485.923L470.185 490.802L466.963 481.191L495.908 471.211C496.644 474.838 497.694 479.81 499.001 485.923Z" fill="black"/>
<path d="M424.135 392.204C424.135 392.204 405.593 426.93 423.048 490.233L457.093 486.348V453.702L464.458 485.151L498.577 478.301C488.082 426.93 474.641 403.914 474.641 403.914L472.91 388.484L424.135 392.204Z" fill="#C52D95"/>
<path opacity="0.7" d="M424.135 392.204C424.135 392.204 405.593 426.93 423.048 490.233L457.093 486.348V453.702L464.458 485.151L498.577 478.301C488.082 426.93 474.641 403.914 474.641 403.914L472.91 388.484L424.135 392.204Z" fill="white"/>
<path d="M438.699 651.398C438.699 650.311 452.085 651.158 452.085 651.158C452.085 651.158 460.297 659.517 468.27 661.396C476.242 663.274 471.787 668.061 462.875 668.061H440.78C434.556 668.061 438.441 662.666 438.699 651.398Z" fill="#263238"/>
<path d="M459.1 654.584C457.175 654.343 455.306 653.769 453.576 652.89C453.526 652.87 453.482 652.838 453.447 652.798C453.429 652.754 453.419 652.707 453.419 652.659C453.419 652.612 453.429 652.565 453.447 652.521C453.447 652.392 454.607 649.281 456.43 648.526C456.698 648.398 456.99 648.332 457.286 648.332C457.583 648.332 457.875 648.398 458.143 648.526C458.75 648.802 459.045 649.189 459.026 649.631C459.008 650.072 458.032 651.048 456.946 651.619C457.958 651.449 458.997 651.563 459.947 651.951C460.296 652.144 460.555 652.469 460.665 652.853C460.762 653.095 460.782 653.36 460.723 653.614C460.663 653.867 460.528 654.097 460.334 654.271C459.973 654.518 459.535 654.629 459.1 654.584ZM454.791 652.742C456.762 653.571 459.211 654.307 459.837 653.792C459.837 653.792 460.058 653.608 459.929 653.092C459.868 652.888 459.729 652.716 459.542 652.613C457.989 652.198 456.352 652.217 454.81 652.669L454.791 652.742ZM457.185 649.06C456.996 649.061 456.808 649.098 456.633 649.17C455.589 649.864 454.79 650.869 454.35 652.043C456.32 651.288 458.235 650.201 458.271 649.649C458.271 649.465 457.977 649.299 457.793 649.207C457.609 649.089 457.402 649.014 457.185 648.986V649.06Z" fill="#C52D95"/>
<path d="M513.454 651.398C513.454 650.311 526.822 651.158 526.822 651.158C526.822 651.158 535.034 659.517 543.007 661.396C550.979 663.274 546.542 668.061 537.612 668.061H515.572C509.22 668.061 513.178 662.666 513.454 651.398Z" fill="#263238"/>
<path d="M533.856 654.586C531.931 654.345 530.061 653.772 528.332 652.892C528.309 652.885 528.287 652.873 528.268 652.857C528.249 652.841 528.233 652.822 528.222 652.8C528.203 652.756 528.193 652.709 528.193 652.662C528.193 652.614 528.203 652.567 528.222 652.524C528.222 652.395 529.4 649.283 531.205 648.528C531.476 648.402 531.771 648.336 532.07 648.336C532.369 648.336 532.664 648.402 532.935 648.528C533.543 648.804 533.838 649.191 533.819 649.633C533.801 650.075 532.825 651.051 531.739 651.622C532.744 651.455 533.777 651.569 534.721 651.953C534.899 652.043 535.055 652.17 535.179 652.326C535.303 652.481 535.392 652.662 535.44 652.855C535.538 653.095 535.561 653.36 535.505 653.613C535.45 653.867 535.317 654.097 535.126 654.273C534.756 654.529 534.304 654.641 533.856 654.586ZM529.529 652.745C531.499 653.573 533.948 654.31 534.574 653.794C534.574 653.794 534.795 653.61 534.666 653.095C534.639 652.992 534.59 652.897 534.524 652.814C534.457 652.732 534.374 652.664 534.28 652.616C532.721 652.197 531.077 652.216 529.529 652.671V652.745ZM531.923 649.062C531.739 649.063 531.558 649.101 531.389 649.173C530.334 649.86 529.528 650.866 529.087 652.045C531.076 651.29 532.972 650.204 533.009 649.651C533.009 649.467 532.714 649.302 532.53 649.209C532.347 649.092 532.139 649.016 531.923 648.989V649.062Z" fill="#C52D95"/>
<path opacity="0.2" d="M457.094 453.704C462.912 441.699 466.963 431.793 466.963 431.793C466.963 431.793 468.233 462.229 464.459 485.19L457.094 453.704Z" fill="black"/>
<path d="M445.328 243.282C445.328 243.282 431.334 236.267 420.434 242.38C415.407 245.216 413.897 251.936 413.069 257.11C411.854 264.475 411.927 271.84 411.227 279.205C410.998 282.311 410.244 285.355 409 288.209C407.158 292.002 404.507 300.38 404.507 300.38L412.921 302.074L415.72 298.391L416.309 302.774L439.933 307.543L441.59 303.86L443.247 308.297L449.857 307.248L452.196 301.982L453.374 306.696L463.004 305.167L464.845 299.423L467.091 304.504L474.199 303.363L474.033 286.294C474.033 286.294 473.002 275.155 472.1 269.428C471.402 264.345 469.988 259.386 467.902 254.698C463.575 245.51 455.436 240.87 445.328 243.282Z" fill="#263238"/>
<path d="M469.706 308.52C477.071 309.974 504.433 335.384 501.726 347.186C499.019 358.989 476.666 374.584 476.666 374.584C476.666 374.584 488.487 377.53 488.524 379.04C488.561 380.55 481.49 388.596 480.459 388.872C476.896 387.384 473.449 385.63 470.148 383.625C468.565 382.557 468.068 376.425 468.068 376.425C473.591 368.895 489.04 350.132 489.389 346.763C489.739 343.393 467.994 326.601 467.994 326.601C467.994 326.601 465.195 317.965 466.153 313.546C467.11 309.127 469.706 308.52 469.706 308.52Z" fill="#EBB376"/>
<path d="M467.938 327.446C465.361 318.239 463.869 309.493 469.08 307.744C474.291 305.995 502.48 333.375 501.91 345.987C501.486 355.378 480.22 373.164 480.22 373.164L474.235 367.033C474.235 367.033 488.174 348.215 488.524 346.024C488.873 343.833 467.938 327.446 467.938 327.446Z" fill="#C52D95"/>
<path opacity="0.3" d="M467.938 327.446C465.361 318.239 463.869 309.493 469.08 307.744C474.291 305.995 502.48 333.375 501.91 345.987C501.486 355.378 480.22 373.164 480.22 373.164L474.235 367.033C474.235 367.033 488.045 348.289 488.524 346.024C489.002 343.759 467.938 327.446 467.938 327.446Z" fill="black"/>
<path opacity="0.2" d="M478.931 336.25L472.008 330.652L473.297 322.164L478.931 336.25Z" fill="black"/>
<path d="M424.135 385.077V392.222L472.855 388.484V380.051L424.135 385.077Z" fill="#263238"/>
<path d="M461.336 381.76L450.681 382.715L451.404 390.784L462.059 389.829L461.336 381.76Z" fill="white"/>
<path d="M440.183 382.1L437.774 382.223L438.402 394.525L440.811 394.402L440.183 382.1Z" fill="#C52D95"/>
<path opacity="0.6" d="M440.183 382.1L437.774 382.223L438.402 394.525L440.811 394.402L440.183 382.1Z" fill="white"/>
<path d="M469.936 378.838L467.527 378.961L468.155 391.263L470.564 391.14L469.936 378.838Z" fill="#C52D95"/>
<path opacity="0.6" d="M469.936 378.838L467.527 378.961L468.155 391.263L470.564 391.14L469.936 378.838Z" fill="white"/>
<path d="M472.781 380.897L424.061 385.113C422.901 366.995 425.903 355.745 415.113 323.468C414.192 320.65 413.511 314.906 412.406 311.739C418.998 310.229 421.355 310.321 428.204 309.179C435.432 307.892 442.742 307.117 450.079 306.859C459.561 306.859 470.443 307.872 470.443 307.872C470.443 307.872 472.008 308.24 472.965 318.275C473.868 327.721 474.733 346.575 472.781 380.897Z" fill="#C52D95"/>
<path opacity="0.3" d="M472.781 380.898L424.08 385.115C423.417 374.896 424.522 367.218 422.754 355.36C421.509 345.98 419.401 336.734 416.457 327.741C416.034 326.36 415.426 324.445 414.947 322.991C414.027 320.155 413.511 315.018 412.406 311.832C419.145 310.304 421.355 310.396 428.204 309.255C435.434 307.982 442.743 307.213 450.079 306.953C459.561 306.953 470.443 307.966 470.443 307.966C470.443 307.966 472.008 308.334 472.965 318.369C473.868 327.704 474.733 346.577 472.781 380.898Z" fill="black"/>
<path d="M446.064 317.632C434.059 316.104 430.45 310.967 430.45 310.967C438.055 303.786 431.739 291.32 431.739 291.32L446.193 294.027C445.851 296.035 445.66 298.066 445.622 300.103C445.512 308.886 449.47 308.96 449.47 308.96C452.011 313.636 446.064 317.632 446.064 317.632Z" fill="#EBB376"/>
<path opacity="0.2" d="M446.193 294.027C445.983 295.007 445.878 296.007 445.88 297.01L445.641 299.348L431.739 291.32L446.193 294.027Z" fill="black"/>
<path d="M460.426 287.18C460.297 287.622 460.187 288.045 460.039 288.451C458.327 293.717 454.626 296.939 448.108 297.086C447.161 297.121 446.214 297.084 445.273 296.976C444.665 296.976 444.02 296.828 443.431 296.718C421.189 293.035 420.121 252.675 441.59 251.478C454.479 250.76 459.064 257.48 460.739 270.756C461.625 276.205 461.519 281.769 460.426 287.18Z" fill="#EBB376"/>
<path d="M452.306 270.496C453.443 272.371 454.803 274.103 456.356 275.652C456.007 276.207 455.511 276.656 454.923 276.949C454.335 277.241 453.678 277.366 453.024 277.309L452.306 270.496Z" fill="#D58745"/>
<path d="M428.591 274.067C428.591 274.067 434.114 263.112 432.697 254.955C432.697 254.955 457.775 243.06 460.463 269.022C460.463 269.022 461.697 245.767 439.436 246.485C417.175 247.203 419.034 279.72 431.058 288.834C431.058 288.779 425.221 280.917 428.591 274.067Z" fill="#263238"/>
<path d="M430.873 276.684C430.668 275.195 429.879 273.849 428.681 272.941C427.483 272.033 425.974 271.637 424.484 271.842C420.489 272.486 418.96 280.827 429.124 282.263C430.542 282.466 431.278 281.03 430.873 276.684Z" fill="#EBB376"/>
<path d="M444.868 269.833C444.868 270.828 444.315 271.675 443.653 271.675C442.99 271.675 442.456 270.865 442.474 269.833C442.493 268.802 443.026 267.992 443.689 267.992C444.352 267.992 444.886 268.839 444.868 269.833Z" fill="#263238"/>
<path d="M443.413 268.067L445.586 267.238C445.586 267.238 444.499 269.043 443.413 268.067Z" fill="#263238"/>
<path d="M457.259 269.74C457.259 270.734 456.706 271.581 456.043 271.581C455.381 271.581 454.847 270.752 454.847 269.74C454.847 268.727 455.417 267.898 456.08 267.898C456.743 267.898 457.277 268.745 457.259 269.74Z" fill="#263238"/>
<path d="M455.805 267.973L457.977 267.145C457.977 267.145 456.873 268.949 455.805 267.973Z" fill="#263238"/>
<path d="M439.767 263.721C439.648 263.731 439.529 263.705 439.424 263.647C439.32 263.589 439.235 263.501 439.18 263.395C439.124 263.289 439.102 263.169 439.115 263.05C439.128 262.931 439.175 262.819 439.252 262.727C440.018 261.98 440.948 261.425 441.969 261.105C442.989 260.785 444.071 260.71 445.125 260.885C445.282 260.91 445.422 260.995 445.515 261.123C445.608 261.251 445.647 261.41 445.623 261.567C445.598 261.723 445.513 261.863 445.385 261.956C445.257 262.05 445.098 262.088 444.941 262.064C444.087 261.938 443.215 262.004 442.39 262.259C441.565 262.514 440.807 262.951 440.172 263.537C440.06 263.64 439.919 263.704 439.767 263.721Z" fill="#263238"/>
<path d="M458.714 263.003C458.57 263.016 458.426 262.976 458.309 262.893C457.72 262.408 457.033 262.06 456.294 261.872C455.556 261.684 454.785 261.662 454.037 261.806C453.885 261.853 453.722 261.839 453.581 261.766C453.44 261.694 453.332 261.57 453.282 261.42C453.235 261.268 453.249 261.105 453.322 260.963C453.394 260.822 453.518 260.715 453.669 260.665C454.594 260.451 455.556 260.45 456.481 260.664C457.406 260.878 458.271 261.3 459.008 261.898C459.137 261.994 459.223 262.137 459.247 262.295C459.271 262.454 459.232 262.616 459.137 262.745C459.09 262.817 459.028 262.878 458.955 262.923C458.881 262.967 458.799 262.995 458.714 263.003Z" fill="#263238"/>
<path d="M452.712 282.963C453.012 282.981 453.313 282.981 453.614 282.963C453.662 282.96 453.708 282.949 453.751 282.928C453.794 282.907 453.832 282.877 453.863 282.841C453.894 282.805 453.917 282.763 453.932 282.717C453.946 282.671 453.95 282.623 453.945 282.576C453.936 282.482 453.891 282.394 453.819 282.333C453.747 282.271 453.653 282.239 453.559 282.245C452.006 282.446 450.427 282.225 448.989 281.607C447.551 280.988 446.305 279.993 445.383 278.728C445.327 278.648 445.243 278.592 445.147 278.571C445.052 278.551 444.952 278.567 444.868 278.617C444.789 278.67 444.733 278.751 444.713 278.844C444.692 278.936 444.708 279.033 444.757 279.114C445.666 280.359 446.866 281.362 448.254 282.033C449.641 282.704 451.172 283.023 452.712 282.963Z" fill="#263238"/>
<path d="M436.747 244.718C442.381 244.534 447.978 245.689 453.079 248.088C460.15 251.918 460.444 257.791 460.444 257.791L457.977 256.871L453.079 252.875C453.75 254.105 454.092 255.488 454.073 256.889C454.073 256.889 452.545 253.612 450.391 253.078C450.662 253.884 450.697 254.751 450.492 255.576C450.286 256.402 449.849 257.151 449.231 257.736C448.782 256.049 447.768 254.567 446.359 253.538C446.359 253.538 446.727 255.379 443.044 257.736C443.096 256.866 442.932 255.997 442.566 255.207C442.199 254.416 441.642 253.729 440.945 253.206C440.945 253.206 439.104 256.558 436.747 257.073C436.747 257.073 438.588 255.379 438.202 254.385C436.187 256.201 433.672 257.369 430.984 257.736C426.952 258.123 421.667 249.579 436.747 244.718Z" fill="#263238"/>
<path opacity="0.2" d="M427.43 280.717C428.223 281.023 428.987 281.399 429.714 281.84C432.015 283.24 435.974 289.205 435.974 289.205C435.974 289.205 439.362 293.716 438.515 296.147C438.041 297.357 437.494 298.538 436.876 299.682L436.71 311.706L431.039 310.325L431.739 297.068L427.191 281.859C426.433 281.646 425.699 281.356 425 280.993C425.762 280.652 426.611 280.555 427.43 280.717Z" fill="black"/>
<path d="M436.25 304.429V298.905C436.868 298.645 437.383 298.188 437.716 297.606C438.048 297.023 438.18 296.348 438.091 295.683C437.76 293.345 428.885 282.168 428.148 281.855C427.412 281.542 420.157 283.697 419.955 283.697C419.752 283.697 423.637 294.855 431.205 298.887L431.665 305.663L436.25 304.429Z" fill="#EBB376"/>
<path d="M449.471 308.961H461.512L451.717 324.925L421.98 313.362L430.45 310.968L449.471 308.961Z" fill="#EBB376"/>
<path opacity="0.2" d="M442.05 351.806C439.454 354.659 426.436 347.294 420.249 341.31C418.647 334.185 419.513 337.978 415.867 325.788L422.422 320.946L426.896 324.058L427.651 315.569L429.327 316.214L429.806 311.15L427.964 311.666L428.185 309.18L430.027 308.867L438.22 315.312L438.496 319.786L440.338 320.486C440.338 320.486 445.493 348.049 442.05 351.806Z" fill="black"/>
<path d="M412.462 311.797C415.978 310.729 428.204 328.865 428.204 328.865L430.929 299.773L437.135 301.283C437.135 301.283 441.443 344.977 437.135 346.891C432.826 348.806 421.742 342.583 411.007 326.877C407.048 321.114 408.263 312.994 412.462 311.797Z" fill="#C52D95"/>
<path opacity="0.3" d="M412.462 311.797C415.978 310.729 428.204 328.865 428.204 328.865L430.929 299.773L437.135 301.283C437.135 301.283 441.443 344.977 437.135 346.891C432.826 348.806 421.742 342.583 411.007 326.877C407.048 321.114 408.263 312.994 412.462 311.797Z" fill="black"/>
</svg>
