<svg width="270" height="234" viewBox="0 0 270 234" fill="none" xmlns="http://www.w3.org/2000/svg">
<path d="M168.266 59.66C169.537 54.9175 176.266 54.9175 177.537 59.66C187.075 95.2513 214.965 123.047 250.573 132.518C255.334 133.784 255.334 140.551 250.573 141.818C214.965 151.289 187.075 179.084 177.537 214.676C176.266 219.418 169.537 219.418 168.266 214.676C158.729 179.084 130.839 151.289 95.2303 141.818C90.4692 140.551 90.4692 133.784 95.2303 132.518C130.839 123.047 158.729 95.2513 168.266 59.66Z" stroke="#3B47DE"/>
<path d="M109.688 19.0294C111.086 13.8123 118.488 13.8123 119.886 19.0294C129.342 54.3155 156.994 81.873 192.297 91.263C197.534 92.6559 197.534 100.098 192.297 101.491C156.994 110.881 129.342 138.439 119.886 173.725C118.488 178.942 111.086 178.942 109.688 173.725C100.232 138.439 72.5801 110.881 37.2764 101.491C32.0395 100.098 32.0395 92.6559 37.2764 91.263C72.5801 81.873 100.232 54.3155 109.688 19.0294Z" fill="#E9FA00"/>
<path d="M190.217 15.5846C190.352 14.2691 192.272 14.2691 192.406 15.5846C193.087 22.2262 198.347 27.4842 204.991 28.1486C206.306 28.2801 206.306 30.1959 204.991 30.3274C198.347 30.9917 193.087 36.2497 192.406 42.8914C192.272 44.2069 190.352 44.2069 190.217 42.8914C189.537 36.2497 184.277 30.9917 177.632 30.3274C176.318 30.1959 176.318 28.2801 177.632 28.1486C184.277 27.4842 189.537 22.2262 190.217 15.5846Z" stroke="#E9FA00"/>
<path d="M17.0801 57.7393C17.2001 56.5769 18.8962 56.5769 19.0162 57.7393C19.4178 61.6263 22.4995 64.7055 26.3882 65.0913C27.5512 65.2067 27.5512 66.9021 26.3882 67.0175C22.4995 67.4032 19.4178 70.4824 19.0162 74.3695C18.8962 75.5319 17.2001 75.5319 17.0801 74.3695C16.6785 70.4824 13.5968 67.4032 9.70812 67.0175C8.54509 66.9021 8.54509 65.2067 9.70812 65.0913C13.5968 64.7055 16.6785 61.6263 17.0801 57.7393Z" fill="#3B47DE"/>
</svg>
