<?xml version="1.0" standalone="no"?>
<!DOCTYPE svg PUBLIC "-//W3C//DTD SVG 20010904//EN"
 "http://www.w3.org/TR/2001/REC-SVG-20010904/DTD/svg10.dtd">
<svg version="1.0"
    xmlns="http://www.w3.org/2000/svg" width="32.000000pt" height="32.000000pt" viewBox="0 0 32.000000 32.000000" preserveAspectRatio="xMidYMid meet">

    <g transform="translate(0.000000,32.000000) scale(0.100000,-0.100000)" stroke="none">
        <path d="M136 275 c-10 -25 -15 -52 -12 -60 3 -8 1 -15 -4 -15 -6 0 -10 -7
-10 -15 0 -30 -28 -14 -44 25 -9 22 -19 40 -23 40 -14 0 -41 -84 -39 -115 2
-16 4 -54 4 -82 l2 -53 150 0 150 0 2 53 c0 28 2 66 4 82 2 31 -25 115 -39
115 -4 0 -14 -18 -23 -40 -16 -39 -44 -55 -44 -25 0 8 -4 15 -10 15 -5 0 -7 7
-4 15 6 14 -26 105 -36 105 -3 0 -13 -20 -24 -45z m38 -1 c9 -23 8 -24 -14
-24 -11 0 -20 2 -20 4 0 12 13 36 20 36 4 0 11 -7 14 -16z m-114 -81 c0 -7 -9
-13 -20 -13 -23 0 -24 4 -9 32 9 17 13 18 20 7 5 -8 9 -20 9 -26z m118 30
c-10 -2 -26 -2 -35 0 -10 3 -2 5 17 5 19 0 27 -2 18 -5z m122 -35 c0 -4 -9 -8
-20 -8 -21 0 -24 8 -13 36 6 16 7 16 20 -2 7 -10 13 -21 13 -26z m-127 15 c-7
-2 -19 -2 -25 0 -7 3 -2 5 12 5 14 0 19 -2 13 -5z m27 -33 c0 -25 -15 -26 -30
-2 -10 16 -10 16 -20 0 -15 -24 -30 -23 -30 2 0 17 7 20 40 20 33 0 40 -3 40
-20z m-142 -7 c-10 -2 -26 -2 -35 0 -10 3 -2 5 17 5 19 0 27 -2 18 -5z m240 0
c-10 -2 -26 -2 -35 0 -10 3 -2 5 17 5 19 0 27 -2 18 -5z m-192 -19 c-3 -9 -6
-22 -6 -30 0 -8 -5 -14 -11 -14 -6 0 -9 7 -6 15 4 8 2 17 -4 20 -13 9 -1 25
18 25 10 0 13 -6 9 -16z m64 6 c0 -5 -4 -10 -10 -10 -5 0 -10 5 -10 10 0 6 5
10 10 10 6 0 10 -4 10 -10z m75 1 c3 -5 1 -12 -4 -16 -6 -3 -8 -12 -4 -20 3
-8 0 -15 -6 -15 -6 0 -11 6 -11 14 0 8 -3 21 -6 30 -7 17 20 23 31 7z m-192
-8 c-7 -2 -19 -2 -25 0 -7 3 -2 5 12 5 14 0 19 -2 13 -5z m240 0 c-7 -2 -19
-2 -25 0 -7 3 -2 5 12 5 14 0 19 -2 13 -5z m-235 -20 c-10 -2 -26 -2 -35 0
-10 3 -2 5 17 5 19 0 27 -2 18 -5z m152 -53 c0 -33 -4 -60 -10 -60 -5 0 -10 9
-10 19 0 21 -22 33 -45 25 -8 -4 -15 -15 -15 -25 0 -10 -4 -19 -10 -19 -6 0
-10 27 -10 60 l0 60 50 0 50 0 0 -60z m88 53 c-10 -2 -26 -2 -35 0 -10 3 -2 5
17 5 19 0 27 -2 18 -5z m-238 -63 c0 -43 -3 -50 -20 -50 -17 0 -20 7 -20 50 0
43 3 50 20 50 17 0 20 -7 20 -50z m240 0 c0 -43 -3 -50 -20 -50 -17 0 -20 7
-20 50 0 43 3 50 20 50 17 0 20 -7 20 -50z m-200 -11 c0 -28 -4 -39 -12 -37
-24 8 -22 78 2 78 5 0 10 -18 10 -41z m145 1 c0 -18 -6 -35 -12 -37 -9 -3 -13
8 -13 37 0 29 4 40 13 38 6 -3 12 -20 12 -38z m-67 -23 c2 -12 -3 -17 -17 -17
-12 0 -21 6 -21 13 0 31 32 34 38 4z"/>
        <path d="M146 104 c-10 -26 -7 -34 14 -34 21 0 24 8 14 34 -8 20 -20 20 -28 0z"/>
    </g>
</svg>
