<svg width="40" height="25" viewBox="0 0 40 25" fill="none" xmlns="http://www.w3.org/2000/svg">
<path d="M7.68945 7.5V12.5" stroke="white" stroke-width="0.5" stroke-linecap="round"/>
<path d="M7.68945 5V5.83333" stroke="white" stroke-width="0.5" stroke-linecap="round"/>
<path d="M7.68945 14.168V20.8346" stroke="white" stroke-width="0.5" stroke-linecap="round"/>
<path fill-rule="evenodd" clip-rule="evenodd" d="M8.01562 2H26.4648C28.1217 2 29.4648 3.34315 29.4648 5V20C29.4648 21.6569 28.1217 23 26.4648 23H8.01563C6.35877 23 5.01562 21.6569 5.01562 20V5C5.01562 3.34315 6.35877 2 8.01562 2ZM3.01562 5C3.01562 2.23858 5.2542 0 8.01562 0H26.4648C29.2262 0 31.4648 2.23858 31.4648 5V10.0887L34.7097 6.2532C36.5148 4.11954 40 5.39604 40 8.19084V17.8112C40 20.6057 36.5153 21.8824 34.71 19.7492L31.4648 15.9146V20C31.4648 22.7614 29.2262 25 26.4648 25H8.01563C5.25421 25 3.01562 22.7614 3.01562 20V5ZM32.1664 12.3559L36.2366 7.54497C36.8383 6.83374 38 7.25925 38 8.19084V17.8112C38 18.7427 36.8384 19.1682 36.2367 18.4572L32.1665 13.6478C31.851 13.275 31.851 12.7288 32.1664 12.3559Z" fill="#FF26B9"/>
</svg>
