<svg width="19" height="19" viewBox="0 0 19 19" fill="none" xmlns="http://www.w3.org/2000/svg">
<g clip-path="url(#clip0_146_1534)">
<path d="M18.173 9.71009C18.173 8.93122 18.1111 8.36285 17.9772 7.77344H9.27148V11.2889H14.3816C14.2786 12.1625 13.7222 13.4782 12.4859 14.3623L12.4686 14.48L15.2212 16.6585L15.4119 16.6779C17.1633 15.0254 18.173 12.594 18.173 9.71009Z" fill="#4285F4"/>
<path d="M9.27165 18.9743C11.7752 18.9743 13.8769 18.1323 15.412 16.6798L12.4861 14.3642C11.7031 14.922 10.6522 15.3114 9.27165 15.3114C6.81963 15.3114 4.73851 13.659 3.99664 11.375L3.8879 11.3844L1.02571 13.6474L0.988281 13.7537C2.51306 16.8481 5.64508 18.9743 9.27165 18.9743Z" fill="#34A853"/>
<path d="M3.9974 11.375C3.80165 10.7856 3.68836 10.154 3.68836 9.5015C3.68836 8.84889 3.80165 8.21739 3.9871 7.62797L3.98191 7.50244L1.08385 5.20312L0.989033 5.2492C0.360597 6.53332 0 7.97532 0 9.5015C0 11.0277 0.360597 12.4696 0.989033 13.7537L3.9974 11.375Z" fill="#FBBC05"/>
<path d="M9.27165 3.69016C11.0128 3.69016 12.1873 4.45851 12.857 5.1006L15.4738 2.49029C13.8667 0.964108 11.7752 0.0273438 9.27165 0.0273438C5.64508 0.0273438 2.51306 2.15346 0.988281 5.2479L3.98635 7.62667C4.73851 5.34267 6.81963 3.69016 9.27165 3.69016Z" fill="#EB4335"/>
</g>
<defs>
<clipPath id="clip0_146_1534">
<rect width="18.1739" height="19" rx="9.08696" fill="white"/>
</clipPath>
</defs>
</svg>
