<svg xmlns="http://www.w3.org/2000/svg" xmlns:xlink="http://www.w3.org/1999/xlink" width="201" zoomAndPan="magnify" viewBox="0 0 150.75 139.500001" height="186" preserveAspectRatio="xMidYMid meet" version="1.0"><defs><clipPath id="160556e65e"><path d="M 0.386719 0.324219 L 149.851562 0.324219 L 149.851562 136 L 0.386719 136 Z M 0.386719 0.324219 " clip-rule="nonzero"/></clipPath><clipPath id="586157ed35"><path d="M 22 117 L 44 117 L 44 138.582031 L 22 138.582031 Z M 22 117 " clip-rule="nonzero"/></clipPath><clipPath id="90a34db859"><path d="M 101.28125 81.378906 L 136.925781 81.378906 L 136.925781 115.917969 L 101.28125 115.917969 Z M 101.28125 81.378906 " clip-rule="nonzero"/></clipPath><clipPath id="5d2ad09975"><path d="M 104.214844 120 L 121 120 L 121 129.703125 L 104.214844 129.703125 Z M 104.214844 120 " clip-rule="nonzero"/></clipPath><clipPath id="f3efb7171d"><path d="M 105 83.367188 L 126 83.367188 L 126 103 L 105 103 Z M 105 83.367188 " clip-rule="nonzero"/></clipPath><clipPath id="c9e34a9170"><path d="M 130 107 L 149.800781 107 L 149.800781 128 L 130 128 Z M 130 107 " clip-rule="nonzero"/></clipPath><clipPath id="8f427c0ffa"><path d="M 130 83.367188 L 149.800781 83.367188 L 149.800781 103 L 130 103 Z M 130 83.367188 " clip-rule="nonzero"/></clipPath></defs><g clip-path="url(#160556e65e)"><path fill="#FF26B9" d="M 0.386719 75.457031 C 0.386719 83.449219 6.871094 89.949219 14.851562 89.949219 L 48.871094 89.789062 L 46.625 114.492188 L 46.617188 114.71875 C 46.617188 122.210938 52.226562 135.96875 61.398438 135.96875 L 70.410156 135.96875 L 75.089844 111.023438 L 96.351562 77.996094 C 97.988281 75.695312 99.296875 73.664062 100.34375 71.777344 C 101.980469 72.773438 103.855469 73.316406 105.796875 73.316406 L 139.203125 73.316406 C 145.074219 73.316406 149.851562 68.523438 149.851562 62.636719 L 149.851562 11.027344 C 149.851562 5.140625 145.074219 0.351562 139.203125 0.351562 L 105.796875 0.351562 C 102.394531 0.351562 99.246094 2.03125 97.277344 4.699219 C 94.253906 2.40625 90.558594 1.136719 86.742188 1.136719 L 29.632812 1.136719 C 21.660156 1.136719 15.175781 7.636719 15.175781 15.628906 C 15.175781 17.515625 15.535156 19.34375 16.230469 21.050781 C 10.050781 22.699219 5.488281 28.355469 5.488281 35.058594 C 5.488281 37.40625 6.0625 39.707031 7.144531 41.769531 C 3.011719 44.394531 0.386719 49.003906 0.386719 54.011719 C 0.386719 58.171875 2.144531 62.027344 5.140625 64.734375 C 2.144531 67.441406 0.386719 71.292969 0.386719 75.457031 Z M 105.796875 5.339844 L 139.203125 5.339844 C 142.332031 5.339844 144.875 7.890625 144.875 11.027344 L 144.875 62.636719 C 144.875 65.773438 142.332031 68.328125 139.203125 68.328125 L 105.796875 68.328125 C 104.390625 68.328125 103.058594 67.75 102.007812 66.765625 L 100.5 9.160156 C 101.296875 6.902344 103.425781 5.339844 105.796875 5.339844 Z M 10.628906 62.507812 C 7.378906 60.871094 5.363281 57.613281 5.363281 54.011719 C 5.363281 50.046875 7.878906 46.460938 11.628906 45.089844 L 14.960938 43.871094 L 12.679688 41.144531 C 11.25 39.433594 10.460938 37.273438 10.460938 35.0625 C 10.460938 29.820312 14.714844 25.554688 19.941406 25.554688 L 25.410156 25.554688 L 22.210938 21.511719 C 20.863281 19.808594 20.152344 17.773438 20.152344 15.628906 C 20.152344 10.390625 24.402344 6.125 29.632812 6.125 L 86.742188 6.125 C 90.027344 6.125 93.183594 7.460938 95.539062 9.796875 L 97.046875 67.28125 C 95.976562 69.5625 94.46875 72.058594 92.238281 75.195312 L 70.378906 109.140625 L 66.285156 130.984375 L 61.398438 130.984375 C 56.207031 130.984375 51.644531 120.964844 51.59375 114.828125 L 54.320312 84.777344 L 14.84375 84.960938 C 9.613281 84.960938 5.363281 80.695312 5.363281 75.457031 C 5.363281 71.855469 7.378906 68.601562 10.628906 66.964844 L 15.050781 64.734375 Z M 10.628906 62.507812 " fill-opacity="1" fill-rule="nonzero"/></g></svg>