<svg xmlns="http://www.w3.org/2000/svg" xmlns:xlink="http://www.w3.org/1999/xlink" width="201" zoomAndPan="magnify" viewBox="0 0 150.75 139.500001" height="186" preserveAspectRatio="xMidYMid meet" version="1.0"><defs><clipPath id="6e7d70de00"><path d="M 0.648438 3 L 150.113281 3 L 150.113281 138.953125 L 0.648438 138.953125 Z M 0.648438 3 " clip-rule="nonzero"/></clipPath><clipPath id="c2cf38e76f"><path d="M 107 0.699219 L 128 0.699219 L 128 22 L 107 22 Z M 107 0.699219 " clip-rule="nonzero"/></clipPath><clipPath id="87987992b3"><path d="M 112.242188 81.457031 L 127.15625 81.457031 L 127.15625 94.875 L 112.242188 94.875 Z M 112.242188 81.457031 " clip-rule="nonzero"/></clipPath></defs><g clip-path="url(#6e7d70de00)"><path fill="#FF26B9" d="M 150.113281 63.824219 C 150.113281 55.832031 143.628906 49.328125 135.648438 49.328125 L 101.628906 49.492188 L 103.875 24.785156 L 103.886719 24.558594 C 103.886719 17.066406 98.273438 3.308594 89.101562 3.308594 L 80.089844 3.308594 L 75.414062 28.257812 L 54.148438 61.28125 C 52.511719 63.582031 51.203125 65.617188 50.15625 67.503906 C 48.519531 66.507812 46.644531 65.964844 44.703125 65.964844 L 11.296875 65.964844 C 5.425781 65.964844 0.648438 70.753906 0.648438 76.640625 L 0.648438 128.253906 C 0.648438 134.140625 5.425781 138.929688 11.296875 138.929688 L 44.703125 138.929688 C 48.105469 138.929688 51.253906 137.25 53.222656 134.582031 C 56.246094 136.875 59.941406 138.144531 63.761719 138.144531 L 120.871094 138.144531 C 128.839844 138.144531 135.324219 131.644531 135.324219 123.652344 C 135.324219 121.765625 134.964844 119.9375 134.269531 118.230469 C 140.449219 116.582031 145.015625 110.925781 145.015625 104.21875 C 145.015625 101.875 144.4375 99.570312 143.355469 97.507812 C 147.492188 94.882812 150.113281 90.277344 150.113281 85.269531 C 150.113281 81.105469 148.355469 77.253906 145.363281 74.546875 C 148.359375 71.839844 150.113281 67.984375 150.113281 63.824219 Z M 44.703125 133.941406 L 11.296875 133.941406 C 8.167969 133.941406 5.625 131.390625 5.625 128.253906 L 5.625 76.640625 C 5.625 73.503906 8.167969 70.953125 11.296875 70.953125 L 44.703125 70.953125 C 46.109375 70.953125 47.441406 71.53125 48.492188 72.511719 L 50.003906 130.117188 C 49.203125 132.378906 47.078125 133.941406 44.703125 133.941406 Z M 139.871094 76.773438 C 143.121094 78.410156 145.140625 81.664062 145.140625 85.265625 C 145.140625 89.234375 142.621094 92.816406 138.875 94.191406 L 135.539062 95.410156 L 137.820312 98.136719 C 139.25 99.847656 140.039062 102.007812 140.039062 104.21875 C 140.039062 109.460938 135.785156 113.722656 130.558594 113.722656 L 125.089844 113.722656 L 128.289062 117.769531 C 129.636719 119.472656 130.351562 121.507812 130.351562 123.652344 C 130.351562 128.890625 126.097656 133.15625 120.871094 133.15625 L 63.761719 133.15625 C 60.472656 133.15625 57.320312 131.820312 54.960938 129.484375 L 53.457031 71.996094 C 54.523438 69.71875 56.03125 67.222656 58.261719 64.085938 L 80.121094 30.140625 L 84.214844 8.296875 L 89.101562 8.296875 C 94.296875 8.296875 98.855469 18.3125 98.910156 24.449219 L 96.179688 54.5 L 135.660156 54.316406 C 140.886719 54.316406 145.140625 58.582031 145.140625 63.824219 C 145.140625 67.425781 143.121094 70.679688 139.871094 72.316406 L 135.449219 74.542969 Z M 139.871094 76.773438 " fill-opacity="1" fill-rule="nonzero"/></g><path fill="#FF26B9" d="M 47.882812 41.414062 C 36.058594 42.515625 33.558594 45.027344 32.460938 56.882812 C 32.398438 57.53125 31.453125 57.53125 31.394531 56.882812 C 30.296875 45.027344 27.792969 42.515625 15.96875 41.414062 C 15.320312 41.355469 15.320312 40.40625 15.96875 40.347656 C 27.792969 39.246094 30.296875 36.734375 31.394531 24.882812 C 31.453125 24.230469 32.398438 24.230469 32.460938 24.882812 C 33.558594 36.734375 36.058594 39.246094 47.882812 40.347656 C 48.53125 40.40625 48.53125 41.355469 47.882812 41.414062 Z M 47.882812 41.414062 " fill-opacity="1" fill-rule="nonzero"/><g clip-path="url(#c2cf38e76f)"><path fill="#FF26B9" d="M 127.246094 11.414062 C 119.902344 12.097656 118.347656 13.65625 117.664062 21.023438 C 117.625 21.425781 117.039062 21.425781 117 21.023438 C 116.320312 13.65625 114.765625 12.097656 107.417969 11.414062 C 107.015625 11.375 107.015625 10.785156 107.417969 10.75 C 114.765625 10.066406 116.320312 8.507812 117 1.140625 C 117.039062 0.734375 117.625 0.734375 117.664062 1.140625 C 118.347656 8.507812 119.902344 10.066406 127.246094 10.75 C 127.652344 10.785156 127.652344 11.375 127.246094 11.414062 Z M 127.246094 11.414062 " fill-opacity="1" fill-rule="nonzero"/></g><path fill="#FF26B9" d="M 147.679688 38.609375 C 141.628906 39.175781 140.347656 40.457031 139.785156 46.527344 C 139.753906 46.859375 139.269531 46.859375 139.238281 46.527344 C 138.675781 40.457031 137.394531 39.175781 131.34375 38.609375 C 131.011719 38.578125 131.011719 38.09375 131.34375 38.0625 C 137.394531 37.5 138.675781 36.214844 139.238281 30.148438 C 139.269531 29.8125 139.753906 29.8125 139.785156 30.148438 C 140.347656 36.214844 141.628906 37.5 147.679688 38.0625 C 148.011719 38.09375 148.011719 38.578125 147.679688 38.609375 Z M 147.679688 38.609375 " fill-opacity="1" fill-rule="nonzero"/><path fill="#FF26B9" d="M 68.34375 15.375 C 60.546875 16.101562 58.898438 17.753906 58.171875 25.570312 C 58.132812 26 57.511719 26 57.46875 25.570312 C 56.746094 17.753906 55.097656 16.101562 47.300781 15.375 C 46.871094 15.335938 46.871094 14.710938 47.300781 14.667969 C 55.097656 13.945312 56.746094 12.289062 57.46875 4.472656 C 57.511719 4.042969 58.132812 4.042969 58.171875 4.472656 C 58.898438 12.289062 60.546875 13.945312 68.34375 14.667969 C 68.769531 14.710938 68.769531 15.335938 68.34375 15.375 Z M 68.34375 15.375 " fill-opacity="1" fill-rule="nonzero"/><g clip-path="url(#87987992b3)"></g></svg>