<svg xmlns="http://www.w3.org/2000/svg"
    xmlns:xlink="http://www.w3.org/1999/xlink" width="201" zoomAndPan="magnify" viewBox="0 0 150.75 150.75" height="201" preserveAspectRatio="xMidYMid meet" version="1.0">
    <defs>
        <clipPath id="18da423305">
            <path d="M 95.429688 0.242188 L 110.371094 0.242188 L 110.371094 13.683594 L 95.429688 13.683594 Z M 95.429688 0.242188 " clip-rule="nonzero"/>
        </clipPath>
        <clipPath id="1dfb800257">
            <path d="M 112 6.960938 L 149.996094 6.960938 L 149.996094 89 L 112 89 Z M 112 6.960938 " clip-rule="nonzero"/>
        </clipPath>
        <clipPath id="a6012af32e">
            <path d="M 0.242188 13 L 107 13 L 107 150.5 L 0.242188 150.5 Z M 0.242188 13 " clip-rule="nonzero"/>
        </clipPath>
    </defs>
    <g clip-path="url(#1dfb800257)">
        <path fill="#FF26B9" d="M 115.640625 6.960938 L 146.8125 6.960938 C 148.53125 6.960938 149.929688 8.363281 149.929688 10.085938 L 149.929688 85.09375 C 149.929688 86.820312 148.53125 88.21875 146.8125 88.21875 L 115.640625 88.21875 C 113.921875 88.21875 112.523438 86.820312 112.523438 85.09375 L 112.523438 10.085938 C 112.523438 8.363281 113.921875 6.960938 115.640625 6.960938 Z M 115.640625 6.960938 " fill-opacity="1" fill-rule="nonzero"/>
    </g>
    <g clip-path="url(#a6012af32e)">
        <path fill="#FF26B9" d="M 0.308594 64.777344 C 0.308594 59.359375 3.398438 54.601562 8.007812 52.277344 C 7.046875 50.359375 6.542969 48.234375 6.542969 46.027344 C 6.542969 40.609375 9.632812 35.851562 14.242188 33.527344 C 13.28125 31.609375 12.777344 29.484375 12.777344 27.277344 C 12.777344 19.519531 19.074219 13.210938 26.804688 13.210938 L 84.46875 13.210938 C 90.238281 13.210938 100.703125 15.699219 105.378906 20.375 C 105.960938 20.964844 106.289062 21.757812 106.289062 22.589844 L 106.289062 78.84375 C 106.289062 80.023438 105.621094 81.105469 104.570312 81.636719 L 99.3125 84.269531 L 81.351562 123.285156 L 81.351562 144.472656 C 81.351562 145.421875 80.921875 146.316406 80.1875 146.917969 C 79.988281 147.074219 75.355469 150.722656 68.882812 150.722656 C 61.671875 150.722656 50.183594 139.277344 50.183594 125.722656 C 50.183594 117.171875 53.238281 106.527344 55.144531 100.71875 L 15.894531 100.71875 C 7.296875 100.71875 0.308594 93.707031 0.308594 85.09375 C 0.308594 81.148438 1.773438 77.449219 4.355469 74.625 C 1.792969 72.035156 0.308594 68.53125 0.308594 64.777344 Z M 0.308594 64.777344 " fill-opacity="1" fill-rule="nonzero"/>
    </g>
</svg>