<svg xmlns="http://www.w3.org/2000/svg" xmlns:xlink="http://www.w3.org/1999/xlink" width="201" zoomAndPan="magnify" viewBox="0 0 150.75 143.999998" height="192" preserveAspectRatio="xMidYMid meet" version="1.0"><defs><clipPath id="2f70c218f4"><path d="M 26.804688 42.011719 L 41.746094 42.011719 L 41.746094 55.453125 L 26.804688 55.453125 Z M 26.804688 42.011719 " clip-rule="nonzero"/></clipPath><clipPath id="0e865c0a40"><path d="M 0.507812 62 L 45 62 L 45 143.878906 L 0.507812 143.878906 Z M 0.507812 62 " clip-rule="nonzero"/></clipPath><clipPath id="9c476900ac"><path d="M 50 0.34375 L 150 0.34375 L 150 138 L 50 138 Z M 50 0.34375 " clip-rule="nonzero"/></clipPath></defs><g clip-path="url(#2f70c218f4)"></g><g clip-path="url(#0e865c0a40)"><path fill="#FF26B9" d="M 44.003906 140.714844 C 41.398438 142.683594 38.179688 143.867188 34.683594 143.867188 L 16.039062 143.867188 C 7.476562 143.867188 0.507812 136.878906 0.507812 128.292969 L 0.507812 78.453125 C 0.507812 69.867188 7.476562 62.878906 16.039062 62.878906 L 44.003906 62.878906 Z M 44.003906 140.714844 " fill-opacity="1" fill-rule="nonzero"/></g><g clip-path="url(#9c476900ac)"><path fill="#FF26B9" d="M 149.636719 86.242188 C 149.636719 91.640625 146.554688 96.382812 141.960938 98.699219 C 142.917969 100.613281 143.421875 102.726562 143.421875 104.929688 C 143.421875 110.339844 140.335938 115.078125 135.742188 117.398438 C 137.164062 120.238281 137.582031 123.507812 136.867188 126.753906 C 135.476562 133.066406 129.554688 137.636719 122.785156 137.636719 L 65.75 137.636719 C 61.675781 137.636719 55.273438 136.347656 50.214844 133.957031 L 50.214844 67.183594 L 50.960938 66.804688 L 68.855469 27.933594 L 68.855469 6.808594 C 68.855469 5.859375 69.285156 4.964844 70.019531 4.371094 C 70.21875 4.222656 74.828125 0.578125 81.285156 0.578125 C 88.472656 0.578125 99.925781 11.984375 99.925781 25.5 C 99.925781 34.019531 96.882812 44.628906 94.980469 50.417969 L 133.363281 50.417969 C 141.726562 50.417969 148.839844 56.625 149.566406 64.542969 C 149.972656 68.984375 148.492188 73.25 145.589844 76.433594 C 148.15625 79.007812 149.636719 82.496094 149.636719 86.242188 Z M 149.636719 86.242188 " fill-opacity="1" fill-rule="nonzero"/></g></svg>